<svg width="110" height="103" viewBox="0 0 110 103" fill="none" xmlns="http://www.w3.org/2000/svg">
  <path d="M90 0L65 25V80L90 57.5V0ZM100 20V87.5C94.5 85.75 88.5 85 82.5 85C74 85 61.75 88.25 55 92.5V25C47.75 19.5 37.25 17.5 27.5 17.5C17.75 17.5 7.25 19.5 0 25V98.25C0 99.5 1.25 100.75 2.5 100.75C3 100.75 3.25 100.5 3.75 100.5C10.5 97.25 20.25 95 27.5 95C37.25 95 47.75 97 55 102.5C61.75 98.25 74 95 82.5 95C90.75 95 99.25 96.5 106.25 100.25C106.75 100.5 107 100.5 107.5 100.5C108.75 100.5 110 99.25 110 98V25C107 22.75 103.75 21.25 100 20ZM45 87.05C38.75 85.45 32.5 85 27.5 85C22.2 85 15.9 85.95 10 87.5V30.65C14.55 28.65 20.7 27.5 27.5 27.5C34.3 27.5 40.45 28.65 45 30.65V87.05Z" fill="url(#paint0_linear_118_196)"/>
  <defs>
    <linearGradient id="paint0_linear_118_196" x1="-3.5" y1="6.5" x2="144.5" y2="125.5" gradientUnits="userSpaceOnUse">
      <stop class="first-stop" />
      <stop class="second-stop" offset="1" />
    </linearGradient>
  </defs>
</svg>