<svg width="81" height="90" viewBox="0 0 81 90" fill="none" xmlns="http://www.w3.org/2000/svg">
  <path d="M46.0001 0C27.1501 0 11.9501 14.75 11.0001 33.3L1.40005 45.95C0.200051 47.5 1.40005 50 3.50005 50H11.0001V65C11.0001 70.55 15.4501 75 21.0001 75H26.0001V90H61.0001V66.55C72.8501 60.95 81.0001 49 81.0001 35C81.0001 15.7 65.4001 0 46.0001 0ZM66.3 32.85L56.5001 35.45L63.7001 42.7C65.4501 44.4 65.4501 47.3 63.7001 49.05C61.9501 50.8 59.0501 50.8 57.3501 49.05L50.0501 41.85L47.5001 51.65C46.9001 54.1 44.4001 55.5 42.0501 54.85C39.6001 54.2 38.2001 51.75 38.85 49.35L41.5001 39.5L31.6501 42.15C29.2501 42.8 26.75 41.4 26.15 38.95C25.5 36.6 26.9001 34.1 29.3501 33.5L39.1501 30.95L31.95 23.65C30.2 21.95 30.2 19.1 31.95 17.3C33.7001 15.55 36.6001 15.55 38.3001 17.3L45.5501 24.5L48.1501 14.7C48.7501 12.3 51.2001 10.9 53.5001 11.5C56.0001 12.15 57.4001 14.6 56.8001 17.05L54.1501 26.85L63.9501 24.2C66.4001 23.6 68.8501 25 69.5001 27.5C70.1001 29.8 68.7001 32.25 66.3 32.85Z" fill="url(#paint0_linear_119_253)"/>
  <defs>
    <linearGradient id="paint0_linear_119_253" x1="-1.62456" y1="5.70732" x2="121.191" y2="87.5792" gradientUnits="userSpaceOnUse">
      <stop class="first-stop" />
      <stop class="second-stop" offset="1" />
    </linearGradient>
  </defs>
</svg>
