<svg width="186" height="45" viewBox="0 0 186 45" fill="none" xmlns="http://www.w3.org/2000/svg">
<path d="M10 30.5209V14.5476H17.3412C18.4964 14.5476 19.4691 14.7073 20.2595 15.0268C21.0651 15.3463 21.673 15.795 22.0834 16.3731C22.509 16.9512 22.7218 17.6282 22.7218 18.404C22.7218 19.3624 22.5014 20.1534 22.0606 20.7772C21.635 21.4009 21.0043 21.8192 20.1683 22.0322L20.0999 21.5986C20.7991 21.766 21.407 22.0398 21.9238 22.4201C22.4406 22.7852 22.8434 23.234 23.1322 23.7665C23.4209 24.2989 23.5653 24.9074 23.5653 25.592C23.5653 26.4287 23.4133 27.1589 23.1094 27.7826C22.8054 28.3911 22.3722 28.9007 21.8098 29.3115C21.2626 29.7222 20.6243 30.0265 19.8947 30.2242C19.1804 30.422 18.4052 30.5209 17.5692 30.5209H10ZM14.5598 26.6416H17.4324C17.7212 26.6416 17.9644 26.596 18.162 26.5047C18.3596 26.3982 18.5116 26.2461 18.618 26.0484C18.7244 25.8354 18.7776 25.5844 18.7776 25.2953C18.7776 25.0367 18.7168 24.8237 18.5952 24.6564C18.4888 24.4738 18.3292 24.3369 18.1164 24.2457C17.9036 24.1392 17.6376 24.0859 17.3184 24.0859H14.5598V26.6416ZM14.5598 20.8H16.4977C16.8473 20.8 17.1285 20.7543 17.3412 20.6631C17.5692 20.5718 17.7288 20.4425 17.82 20.2751C17.9264 20.0926 17.9796 19.872 17.9796 19.6134C17.9796 19.2635 17.858 18.9821 17.6148 18.7691C17.3868 18.5409 16.9993 18.4268 16.4521 18.4268H14.5598V20.8Z" fill="black"/>
<path d="M34.4686 30.5209L29.5213 23.3557L23.1832 14.5476H29.0881L33.9215 21.6215L40.3735 30.5209H34.4686ZM34.2862 23.1047L30 21.3705L33.0412 17.3632C34.8882 14.9294 37.7675 13.5 40.8227 13.5L34.2862 23.1047Z" fill="black"/>
<path d="M29.1793 21.8953L33.4655 23.6295L30.1511 27.9968C28.4761 30.2039 25.8663 31.5 23.0972 31.5H22.6428L29.1793 21.8953Z" fill="black"/>
<g clip-path="url(#clip0_410_1278)">
<path d="M58.2432 13.5C56.8781 13.5 55.5849 13.8055 54.4257 14.3494C54.4265 14.345 54.4286 14.3411 54.429 14.3365C54.312 14.3909 54.1962 14.4477 54.0815 14.5072C54.0873 14.509 54.0943 14.5096 54.1006 14.5111C54.0794 14.5222 54.0577 14.5326 54.0368 14.5439C54.0347 14.5405 54.0319 14.5385 54.0303 14.535C53.9639 14.5699 53.8976 14.6046 53.8324 14.6412C53.8389 14.6424 53.8448 14.6442 53.8511 14.6455C53.7817 14.6842 53.7126 14.7236 53.6444 14.7642C53.6407 14.7614 53.6371 14.7598 53.6336 14.7567C53.6724 14.734 53.7106 14.7104 53.7494 14.6883C53.7102 14.711 53.6704 14.7336 53.6314 14.7567C53.6316 14.7569 53.632 14.7571 53.6322 14.7573C53.6159 14.7671 53.5995 14.7768 53.5832 14.7866C53.5907 14.7857 53.5948 14.7886 53.6013 14.7892C53.5662 14.8103 53.532 14.8326 53.4973 14.8542C53.4997 14.8471 53.5012 14.8408 53.5038 14.8335C53.5038 14.8335 53.5036 14.8335 53.5034 14.8337C53.5034 14.8335 53.5036 14.8333 53.5036 14.833C53.4973 14.8371 53.4908 14.8414 53.4839 14.8454C53.4878 14.843 53.4914 14.841 53.4955 14.8387C53.4817 14.8475 53.4675 14.8562 53.4534 14.8649C53.4577 14.8621 53.4618 14.8594 53.466 14.8568C53.4266 14.8812 53.3868 14.9057 53.3478 14.9309C53.3738 14.9143 53.4002 14.8982 53.4264 14.8822C53.4002 14.8988 53.3744 14.9159 53.3482 14.9329C53.3482 14.9378 53.3492 14.9437 53.3494 14.9488C53.347 14.9504 53.3446 14.952 53.3419 14.9536C53.3395 14.9498 53.3379 14.9453 53.3348 14.9419C53.3391 14.939 53.3432 14.9362 53.3474 14.9333C53.3478 14.9325 53.3474 14.9317 53.3474 14.9311C53.3427 14.9342 53.3379 14.9374 53.333 14.9406C53.3336 14.9409 53.3338 14.9417 53.334 14.9423C53.0864 15.1027 52.8467 15.274 52.6166 15.4575C52.6185 15.4628 52.6215 15.4677 52.6235 15.4726C50.5638 17.1219 49.2432 19.6561 49.2432 22.5C49.2432 27.4704 53.2727 31.5 58.2432 31.5C63.2137 31.5 67.2434 27.4704 67.2434 22.5C67.2434 17.5294 63.2137 13.5 58.2432 13.5ZM64.7045 16.5019C64.7137 16.5171 64.7244 16.5307 64.7328 16.5464C64.4976 16.615 64.5173 16.4294 64.317 16.4635C64.4011 16.6087 64.461 16.9085 64.6495 16.7126C64.6662 16.8235 64.7634 16.748 64.8518 16.6651C66.1283 18.1098 66.9396 19.975 67.0482 22.0274C66.9404 22.0274 66.8327 22.0274 66.7257 22.0274C67.2497 22.8417 66.1318 23.1927 65.646 23.5222C65.794 23.8659 66.1212 23.4171 66.3103 23.6051C66.2287 24.4374 65.6403 24.7617 65.2306 25.2662C65.2513 25.8974 65.2747 26.0671 65.2306 26.6778C64.3861 27.2544 64.3312 29.0329 62.9876 28.8365C62.765 28.2287 62.7563 27.4067 62.489 26.8437C63.0425 26.047 62.2638 25.5141 62.3229 24.5189C62.2114 24.3812 61.887 24.4569 61.9075 24.1865C61.3894 24.3654 61.0169 24.2923 60.4953 24.3526C60.1212 24.1453 59.9713 23.7139 59.6646 23.4394C59.9446 22.6348 59.4881 21.7819 60.4124 21.4463C60.3679 20.4586 61.9398 20.3021 62.5721 20.5331C62.5721 20.6438 62.5721 20.7544 62.5721 20.8651C62.8981 20.9272 63.0528 21.16 63.3199 21.2802C63.3061 21.0723 63.4481 21.0202 63.5696 20.9479C63.823 21.1089 63.7603 21.3373 64.1511 21.1974C64.2971 21.2449 64.6389 21.0969 64.6493 21.2804C64.7726 21.21 64.7695 21.0131 64.8154 20.8651C64.7393 20.5816 64.304 20.6566 64.0672 20.5331C63.9536 20.4271 63.9536 20.1409 64.0672 20.0347C63.5383 19.9961 63.9819 20.4357 63.6522 20.5331C63.5968 20.5331 63.5415 20.5331 63.4861 20.5331C63.5576 20.268 63.3555 20.2763 63.3199 20.1179C63.0728 20.0974 63.0045 20.6805 62.7388 20.367C63.3299 20.2698 62.4041 19.531 62.3235 19.8688C62.3093 19.7446 62.3531 19.5625 62.2402 19.5367C61.9451 19.6286 61.7538 19.8254 61.4923 19.9519C61.4923 20.0625 61.4923 20.1734 61.4923 20.284C61.419 20.3212 61.3441 20.3571 61.3266 20.4499C61.077 20.4499 60.828 20.4499 60.5784 20.4499C60.5743 20.3439 60.4725 20.335 60.4955 20.2004C60.6178 20.018 60.4859 19.5818 60.7451 19.5363C60.984 19.4206 61.1672 19.7626 61.2433 19.5363C61.2716 19.5363 61.2984 19.5363 61.3266 19.5363C61.3636 19.223 61.1623 19.1465 61.077 18.9552C61.0861 18.7985 61.352 18.8976 61.3266 18.7059C62.0347 18.6667 62.0554 17.9397 62.4898 17.6266C62.42 17.7231 62.3799 17.8492 62.407 18.0416C62.7128 18.118 62.5577 17.6037 62.4898 17.5434C62.2971 17.517 62.1709 17.5566 62.0745 17.6266C61.9591 17.5203 62.0237 17.2346 61.9083 17.128C62.4336 16.6568 62.591 15.8175 63.4867 15.7166C63.754 15.7822 63.9949 15.8741 64.2016 16.0006C64.3755 16.1604 64.5431 16.3281 64.7045 16.5019ZM60.9929 17.4602C61.4257 17.5533 61.3059 18.1996 61.6577 18.3736C61.6577 18.4286 61.6577 18.4842 61.6577 18.5396C61.4578 18.5057 61.4771 18.6915 61.2423 18.6229C61.0853 18.6042 61.0591 18.7161 60.9102 18.7057C61.2464 18.2639 60.8144 17.8987 60.9929 17.4602ZM60.9104 18.4564C60.7715 18.4564 60.6336 18.4564 60.4947 18.4564C60.4618 18.1468 60.5613 17.9691 60.8272 17.9582C60.923 18.0564 60.9212 18.252 60.9104 18.4564ZM59.5811 16.7128C59.5078 16.5374 59.328 16.4674 59.3315 16.2146C59.6639 16.296 59.8305 16.296 60.1626 16.2146C60.1784 16.2818 60.2463 16.2975 60.2455 16.3805C60.2341 16.7013 59.9211 16.7208 59.5811 16.7128ZM59.0824 17.2111C58.9551 17.5542 58.5499 17.6195 58.2519 17.7921C58.1577 17.7767 58.2054 17.7089 58.2519 17.7093C58.2393 17.5558 57.9706 17.6581 57.9194 17.5432C57.836 16.5283 59.1732 16.2928 59.0824 17.2111ZM65.3963 27.591C65.1881 26.9529 65.6478 26.6987 65.8946 26.1794C66.1401 26.3765 65.7946 26.6819 65.8117 26.9265C65.7221 27.0804 65.6102 27.2128 65.5661 27.4129C65.5629 27.4172 65.5602 27.4221 65.557 27.4268C65.4684 27.4462 65.4321 27.5181 65.3963 27.591ZM59.5965 13.7852C59.591 13.7924 59.5886 13.7978 59.5815 13.8055C59.6339 13.8163 59.696 13.8169 59.7612 13.8147C59.9006 13.8388 60.0385 13.8661 60.1754 13.8967C60.0413 13.9578 60.0052 14.117 59.8315 14.1377C59.7712 14.3915 59.916 14.4404 59.914 14.6359C59.7712 14.6686 59.7009 14.5129 59.6648 14.6359C59.9499 15.0034 59.2569 15.3231 59.6648 15.6323C59.0597 15.9411 58.2072 16.0025 57.837 16.5457C57.6574 16.7534 57.575 17.0588 57.3385 17.2098C56.7459 17.0393 56.6313 16.0615 56.8096 15.6864C56.8267 15.674 56.8389 15.6567 56.8393 15.633C56.8285 15.649 56.8188 15.6671 56.8096 15.6864C56.766 15.717 56.6886 15.7071 56.674 15.6321C57.0635 14.5299 55.7234 14.8531 55.5107 14.2205C55.6493 14.1099 56.0396 14.2508 56.0092 13.9714C55.9974 13.973 55.987 13.9761 55.9751 13.9775C56.6987 13.7855 57.4586 13.6817 58.2426 13.6817C58.7032 13.6817 59.155 13.7172 59.5965 13.7852ZM54.0991 14.7157C54.2673 14.7705 54.4066 14.8024 54.5963 14.6369C54.4879 14.6304 54.3585 14.6446 54.2494 14.6388C54.6412 14.4394 55.0495 14.2684 55.4724 14.1286C55.1502 14.2952 54.9372 14.5709 54.7633 14.8856C54.3752 14.9234 54.0727 14.9618 53.8276 14.8684C53.9175 14.816 54.0075 14.7644 54.0991 14.7157ZM53.7004 14.9413C53.7191 14.9813 53.7544 15.0046 53.8493 14.9683C53.7609 15.1565 53.5974 15.27 53.3509 15.3004C53.4126 15.2192 53.4394 15.155 53.4532 15.0976C53.5351 15.0446 53.6167 14.9914 53.7004 14.9413ZM52.7397 15.6122C52.7497 15.6192 52.7592 15.6267 52.7694 15.6328C52.7497 15.8618 52.4606 15.8224 52.3542 15.9651C52.9113 16.1302 52.9343 15.4675 53.268 15.8819C53.3021 15.6821 53.1163 15.7014 53.1851 15.4671C53.2912 15.4626 53.3001 15.3605 53.4346 15.3841C53.4752 15.8573 53.7445 15.6439 53.8497 15.9651C53.8674 15.8719 53.9419 15.8356 54.0159 15.7992C54.1042 15.4896 53.7041 15.6679 53.7666 15.3841C53.7782 14.9248 54.468 15.1441 54.7635 14.9689C54.7649 15.1061 54.9938 15.0154 55.0127 15.1349C54.9036 15.1242 54.4117 15.1224 54.6804 15.218C55.5284 15.1514 55.5152 15.7822 56.0096 16.2146C55.8463 16.1896 55.8447 16.3267 55.76 16.3803C55.6497 16.3929 55.5095 16.0429 55.4279 16.2977C55.6097 16.3098 55.6064 16.5068 55.5938 16.7128C55.1819 16.5774 55.5469 16.7228 55.3444 16.8787C55.0342 16.7181 54.7954 16.4863 54.4304 16.3803C54.6343 16.3076 54.9093 16.3058 54.929 16.0483C54.9908 15.7925 54.7005 15.889 54.7629 15.6332C54.641 15.634 54.0829 15.6019 54.3475 15.7164C54.4158 16.0887 54.1091 16.0871 54.015 16.2977C54.1369 16.3697 54.2785 16.4221 54.2645 16.6298C54.1976 16.5859 54.1296 16.5433 54.015 16.5468C53.9104 16.5675 53.9314 16.712 54.015 16.7128C54 16.8531 53.6204 16.6745 53.6825 16.4637C53.2889 16.5957 53.0954 16.9284 52.852 17.2111C52.9233 17.5274 53.2394 17.599 53.5164 17.7093C53.5834 17.7533 53.6517 17.796 53.766 17.7921C53.7059 18.0461 53.8509 18.0946 53.8489 18.2903C54.1322 17.6228 54.376 17.7947 54.3475 16.7126C54.4182 16.7277 54.4259 16.6801 54.4304 16.6296C54.5121 16.6225 54.6278 16.8489 54.929 16.7955C55.1401 16.8612 54.9739 17.3042 55.2611 17.2939C55.53 17.3966 55.3245 17.0253 55.5936 17.1276C55.8538 17.9028 56.3057 18.2974 56.4243 19.0376C56.1704 19.0977 56.1217 18.9528 55.9261 18.9548C55.6357 19.0289 55.7841 18.684 55.8428 18.6225C55.9623 18.576 56.0455 18.4927 56.0923 18.3732C55.7791 18.4519 55.5294 18.8884 55.2615 18.5392C55.3302 18.7737 55.1445 18.7544 55.1785 18.9544C55.163 19.0251 55.2108 19.0328 55.2615 19.0374C55.3259 19.0559 55.4256 19.0395 55.4275 19.1203C55.4275 19.1483 55.4275 19.1755 55.4275 19.2035C55.0324 19.4589 54.0022 19.7535 53.8491 20.6982C53.6056 20.7035 53.5406 20.888 53.4339 21.0303C53.2578 21.1044 53.5983 21.6112 53.3507 21.7778C53.1498 21.6739 53.0822 21.4372 53.0182 21.1966C52.2628 20.7585 50.893 22.1429 52.1875 22.4423C52.2153 22.4423 52.2429 22.4423 52.2707 22.4423C52.2407 22.179 52.7265 22.0704 52.7688 22.3593C52.6457 22.43 52.5902 22.568 52.6028 22.7741C52.5888 22.9546 52.8975 22.8122 53.0182 22.8573C52.9948 23.2252 52.8419 23.5433 53.2674 23.6044C53.332 23.6231 53.4317 23.6069 53.4337 23.6877C53.7599 23.654 53.7886 23.3229 54.0983 23.2725C54.2844 23.4451 54.6347 23.5159 55.1781 23.5216C55.2946 24.0418 55.9255 24.0478 56.2578 24.3524C56.2578 24.4904 56.2578 24.6287 56.2578 24.7676C56.8513 24.9219 57.2892 25.2315 57.8362 25.4314C57.758 26.2119 57.2437 26.5556 57.2551 27.4247C57.0316 27.5342 56.8131 27.6476 56.5903 27.7567C56.5133 28.3026 56.1544 28.9624 55.6763 28.8359C55.6424 29.0361 55.8282 29.0164 55.7592 29.2515C54.9083 29.4919 55.0976 30.0092 54.9613 30.6847C54.745 30.5978 54.5328 30.5034 54.325 30.4004C53.9953 29.753 54.5468 28.5586 54.3477 27.378C54.1928 26.4581 52.8835 25.9278 53.1159 24.8327C53.2639 24.6522 53.4362 24.4961 53.5264 24.2578C52.9286 23.3779 51.755 23.0725 50.8981 22.4517C50.9221 21.9898 50.7539 21.72 50.4874 21.5486C50.5012 21.7813 50.6381 21.8907 50.6521 22.1232C50.0739 21.5588 49.8635 20.6685 49.8389 19.8236C50.3733 18.146 51.3961 16.6873 52.7397 15.6122ZM54.4304 22.4425C54.459 22.7988 54.1278 22.6669 53.9322 22.6086C54.0083 22.4635 54.1915 22.4251 54.4304 22.4425ZM52.9351 22.1102C53.1601 21.7474 53.7274 22.2554 53.9322 22.4427C53.4798 22.4515 53.4126 22.0755 52.9351 22.1102Z" fill="#002AEC"/>
</g>
<path d="M49.2751 25.0497C49.485 24.9195 49.5497 24.6437 49.4194 24.4337C49.2892 24.2237 49.0134 24.1591 48.8034 24.2893L49.2751 25.0497ZM70.8228 18.5L65.657 18.4956L68.236 22.9715L70.8228 18.5ZM48.8034 24.2893C47.7272 24.9569 46.8327 25.6049 46.1389 26.2042C45.4508 26.7986 44.9376 27.3641 44.6493 27.8708C44.3737 28.3552 44.2217 28.9498 44.6046 29.4199C44.7808 29.6362 45.0319 29.7683 45.3054 29.8455C45.5797 29.9229 45.9052 29.9536 46.2722 29.9463C47.7218 29.9178 50.142 29.2865 53.6194 27.8657C57.1128 26.4383 61.7172 24.1953 67.5535 20.9001L67.1136 20.121C61.2987 23.4041 56.7293 25.6285 53.281 27.0374C49.8166 28.4529 47.5274 29.0267 46.2546 29.0518C45.9411 29.058 45.7101 29.03 45.5484 28.9844C45.3859 28.9385 45.3214 28.8831 45.2984 28.8549C45.2831 28.8361 45.1991 28.7138 45.427 28.3133C45.6421 27.9352 46.0679 27.4478 46.7238 26.8814C47.3739 26.3198 48.2282 25.699 49.2751 25.0497L48.8034 24.2893Z" fill="black"/>
<path d="M85.724 25.1839H87.7212C87.6172 26.1409 87.3433 26.9973 86.8995 27.7532C86.4557 28.509 85.8281 29.1089 85.0167 29.5527C84.2054 29.9896 83.1929 30.208 81.9793 30.208C81.0917 30.208 80.2838 30.0416 79.5557 29.7087C78.8345 29.3759 78.2138 28.9043 77.6937 28.2941C77.1736 27.6769 76.7714 26.9383 76.4871 26.0784C76.2097 25.2116 76.071 24.2477 76.071 23.1867V21.6784C76.071 20.6174 76.2097 19.6569 76.4871 18.797C76.7714 17.9302 77.1771 17.1882 77.7041 16.571C78.2381 15.9538 78.8795 15.4788 79.6285 15.1459C80.3774 14.8131 81.22 14.6466 82.1562 14.6466C83.3004 14.6466 84.2678 14.8616 85.0583 15.2916C85.8489 15.7215 86.4626 16.3179 86.8995 17.0807C87.3433 17.8366 87.6172 18.7138 87.7212 19.7124H85.724C85.627 19.0051 85.4467 18.3983 85.1831 17.8921C84.9196 17.3789 84.5452 16.9836 84.0597 16.7062C83.5743 16.4289 82.9398 16.2902 82.1562 16.2902C81.4835 16.2902 80.8906 16.4185 80.3774 16.675C79.8712 16.9316 79.4447 17.2957 79.098 17.7672C78.7582 18.2388 78.5016 18.804 78.3282 19.4628C78.1549 20.1216 78.0682 20.8532 78.0682 21.6576V23.1867C78.0682 23.9287 78.1445 24.6256 78.297 25.2775C78.4565 25.9294 78.6958 26.5015 79.0148 26.9938C79.3338 27.4862 79.7394 27.8745 80.2318 28.1588C80.7242 28.4362 81.3067 28.5749 81.9793 28.5749C82.8323 28.5749 83.5119 28.4397 84.0181 28.1692C84.5244 27.8988 84.9058 27.5105 85.1623 27.0042C85.4259 26.498 85.6131 25.8912 85.724 25.1839ZM102.118 21.9489V22.9058C102.118 24.0431 101.975 25.0625 101.691 25.964C101.407 26.8655 100.998 27.6318 100.464 28.2629C99.9297 28.8939 99.2883 29.3759 98.5393 29.7087C97.7973 30.0416 96.9651 30.208 96.0428 30.208C95.1483 30.208 94.3265 30.0416 93.5776 29.7087C92.8355 29.3759 92.1906 28.8939 91.6428 28.2629C91.1019 27.6318 90.6823 26.8655 90.3841 25.964C90.086 25.0625 89.9369 24.0431 89.9369 22.9058V21.9489C89.9369 20.8116 90.0825 19.7956 90.3737 18.9011C90.6719 17.9996 91.0915 17.2333 91.6324 16.6022C92.1733 15.9642 92.8147 15.4788 93.5568 15.1459C94.3057 14.8131 95.1275 14.6466 96.022 14.6466C96.9443 14.6466 97.7765 14.8131 98.5185 15.1459C99.2675 15.4788 99.9089 15.9642 100.443 16.6022C100.984 17.2333 101.396 17.9996 101.681 18.9011C101.972 19.7956 102.118 20.8116 102.118 21.9489ZM100.131 22.9058V21.928C100.131 21.0265 100.037 20.2291 99.85 19.5356C99.6697 18.8421 99.4027 18.2596 99.049 17.7881C98.6953 17.3165 98.2619 16.9594 97.7488 16.7166C97.2425 16.4739 96.667 16.3526 96.022 16.3526C95.3979 16.3526 94.8327 16.4739 94.3265 16.7166C93.8272 16.9594 93.3973 17.3165 93.0367 17.7881C92.683 18.2596 92.4091 18.8421 92.2149 19.5356C92.0207 20.2291 91.9236 21.0265 91.9236 21.928V22.9058C91.9236 23.8143 92.0207 24.6187 92.2149 25.3191C92.4091 26.0126 92.6865 26.5985 93.0471 27.077C93.4146 27.5486 93.848 27.9057 94.3473 28.1484C94.8535 28.3912 95.4187 28.5125 96.0428 28.5125C96.6947 28.5125 97.2737 28.3912 97.78 28.1484C98.2862 27.9057 98.7127 27.5486 99.0594 27.077C99.4131 26.5985 99.6801 26.0126 99.8604 25.3191C100.041 24.6187 100.131 23.8143 100.131 22.9058ZM105.758 14.8547H107.703L112.665 27.2019L117.617 14.8547H119.572L113.414 30H111.895L105.758 14.8547ZM105.124 14.8547H106.84L107.121 24.0917V30H105.124V14.8547ZM118.48 14.8547H120.196V30H118.199V24.0917L118.48 14.8547ZM129.308 24.0605H125.262V22.4273H129.308C130.092 22.4273 130.727 22.3025 131.212 22.0529C131.697 21.8032 132.051 21.4565 132.273 21.0127C132.502 20.5689 132.616 20.0626 132.616 19.494C132.616 18.9739 132.502 18.485 132.273 18.0273C132.051 17.5696 131.697 17.2021 131.212 16.9247C130.727 16.6404 130.092 16.4982 129.308 16.4982H125.73V30H123.723V14.8547H129.308C130.453 14.8547 131.42 15.0523 132.211 15.4476C133.001 15.8429 133.601 16.3907 134.01 17.0911C134.419 17.7846 134.624 18.5786 134.624 19.4732C134.624 20.444 134.419 21.2727 134.01 21.9593C133.601 22.6458 133.001 23.1694 132.211 23.53C131.42 23.8836 130.453 24.0605 129.308 24.0605ZM141.333 16.1965L136.319 30H134.27L140.043 14.8547H141.364L141.333 16.1965ZM145.536 30L140.511 16.1965L140.48 14.8547H141.801L147.595 30H145.536ZM145.275 24.3933V26.0368H136.767V24.3933H145.275ZM161.274 14.8547V30H159.256L151.631 18.3186V30H149.624V14.8547H151.631L159.287 26.5673V14.8547H161.274ZM165.237 14.8547L169.169 22.4586L173.111 14.8547H175.389L170.167 24.3413V30H168.16V24.3413L162.938 14.8547H165.237Z" fill="black"/>
<defs>
<clipPath id="clip0_410_1278">
<rect width="18" height="18" fill="white" transform="translate(49.2432 13.5)"/>
</clipPath>
</defs>
</svg>
