<svg width="181" height="181" viewBox="0 0 181 181" fill="none" xmlns="http://www.w3.org/2000/svg">
  <circle cx="90.3228" cy="90.3226" r="90" class="bxi-pie-second-legend-fill" />
  <path d="M0.323335 89.9994C0.259421 107.8 5.47532 125.219 15.3114 140.055C25.1476 154.891 39.1621 166.477 55.5829 173.348C72.0037 180.218 90.0932 182.066 107.564 178.656C125.034 175.246 141.102 166.732 153.733 154.19C166.365 141.649 174.994 125.643 178.53 108.198C182.065 90.7518 180.348 72.6495 173.595 56.1798C166.842 39.7101 155.357 25.6127 140.592 15.6703C125.828 5.72792 108.446 0.387061 90.6459 0.323148L90.3228 90.3226L0.323335 89.9994Z" class="bxi-pie-first-legend-fill" />
  <circle cx="89.3228" cy="90.3226" r="45" fill="white"/>
</svg>
