<svg width="98" height="83" viewBox="0 0 98 83" fill="none" xmlns="http://www.w3.org/2000/svg">
  <path d="M90.5 42.5L97.5 49.55L64.85 82.5L47.5 65L54.5 57.95L64.85 68.35L90.5 42.5ZM35 65L50 80H0V70C0 58.95 17.9 50 40 50L49.45 50.55L35 65ZM40 0C45.3043 0 50.3914 2.10714 54.1421 5.85786C57.8929 9.60859 60 14.6957 60 20C60 25.3043 57.8929 30.3914 54.1421 34.1421C50.3914 37.8929 45.3043 40 40 40C34.6957 40 29.6086 37.8929 25.8579 34.1421C22.1071 30.3914 20 25.3043 20 20C20 14.6957 22.1071 9.60859 25.8579 5.85786C29.6086 2.10714 34.6957 0 40 0Z" fill="url(#paint0_linear_119_259)"/>
  <defs>
    <linearGradient id="paint0_linear_119_259" x1="-3.10227" y1="5.23171" x2="117.967" y2="112.433" gradientUnits="userSpaceOnUse">
      <stop class="first-stop" />
      <stop class="second-stop" offset="1" />
    </linearGradient>
  </defs>
</svg>
