<svg width="847" height="283" viewBox="0 0 847 283" fill="none" xmlns="http://www.w3.org/2000/svg">
  <line x1="55.5" y1="254" x2="55.5" y2="264" stroke="#CACED3"/>
  <path d="M56.1309 280H55.0762V273.279C54.8223 273.521 54.4883 273.764 54.0742 274.006C53.6641 274.248 53.2949 274.43 52.9668 274.551V273.531C53.5566 273.254 54.0723 272.918 54.5137 272.523C54.9551 272.129 55.2676 271.746 55.4512 271.375H56.1309V280Z" fill="#68747F"/>
  <line x1="81.5" y1="254" x2="81.5" y2="264" stroke="#CACED3"/>
  <path d="M83.7012 278.986V280H78.0234C78.0156 279.746 78.0566 279.502 78.1465 279.268C78.291 278.881 78.5215 278.5 78.8379 278.125C79.1582 277.75 79.6191 277.316 80.2207 276.824C81.1543 276.059 81.7852 275.453 82.1133 275.008C82.4414 274.559 82.6055 274.135 82.6055 273.736C82.6055 273.318 82.4551 272.967 82.1543 272.682C81.8574 272.393 81.4688 272.248 80.9883 272.248C80.4805 272.248 80.0742 272.4 79.7695 272.705C79.4648 273.01 79.3105 273.432 79.3066 273.971L78.2227 273.859C78.2969 273.051 78.5762 272.436 79.0605 272.014C79.5449 271.588 80.1953 271.375 81.0117 271.375C81.8359 271.375 82.4883 271.604 82.9688 272.061C83.4492 272.518 83.6895 273.084 83.6895 273.76C83.6895 274.104 83.6191 274.441 83.4785 274.773C83.3379 275.105 83.1035 275.455 82.7754 275.822C82.4512 276.189 81.9102 276.693 81.1523 277.334C80.5195 277.865 80.1133 278.227 79.9336 278.418C79.7539 278.605 79.6055 278.795 79.4883 278.986H83.7012Z" fill="#68747F"/>
  <line x1="107.5" y1="254" x2="107.5" y2="264" stroke="#CACED3"/>
  <path d="M104.164 277.732L105.219 277.592C105.34 278.189 105.545 278.621 105.834 278.887C106.127 279.148 106.482 279.279 106.9 279.279C107.396 279.279 107.814 279.107 108.154 278.764C108.498 278.42 108.67 277.994 108.67 277.486C108.67 277.002 108.512 276.604 108.195 276.291C107.879 275.975 107.477 275.816 106.988 275.816C106.789 275.816 106.541 275.855 106.244 275.934L106.361 275.008C106.432 275.016 106.488 275.02 106.531 275.02C106.98 275.02 107.385 274.902 107.744 274.668C108.104 274.434 108.283 274.072 108.283 273.584C108.283 273.197 108.152 272.877 107.891 272.623C107.629 272.369 107.291 272.242 106.877 272.242C106.467 272.242 106.125 272.371 105.852 272.629C105.578 272.887 105.402 273.273 105.324 273.789L104.27 273.602C104.398 272.895 104.691 272.348 105.148 271.961C105.605 271.57 106.174 271.375 106.854 271.375C107.322 271.375 107.754 271.477 108.148 271.68C108.543 271.879 108.844 272.152 109.051 272.5C109.262 272.848 109.367 273.217 109.367 273.607C109.367 273.979 109.268 274.316 109.068 274.621C108.869 274.926 108.574 275.168 108.184 275.348C108.691 275.465 109.086 275.709 109.367 276.08C109.648 276.447 109.789 276.908 109.789 277.463C109.789 278.213 109.516 278.85 108.969 279.373C108.422 279.893 107.73 280.152 106.895 280.152C106.141 280.152 105.514 279.928 105.014 279.479C104.518 279.029 104.234 278.447 104.164 277.732Z" fill="#68747F"/>
  <line x1="133.5" y1="254" x2="133.5" y2="264" stroke="#CACED3"/>
  <path d="M133.539 280V277.943H129.812V276.977L133.732 271.41H134.594V276.977H135.754V277.943H134.594V280H133.539ZM133.539 276.977V273.104L130.85 276.977H133.539Z" fill="#68747F"/>
  <line x1="159.5" y1="254" x2="159.5" y2="264" stroke="#CACED3"/>
  <path d="M156.158 277.75L157.266 277.656C157.348 278.195 157.537 278.602 157.834 278.875C158.135 279.145 158.496 279.279 158.918 279.279C159.426 279.279 159.855 279.088 160.207 278.705C160.559 278.322 160.734 277.814 160.734 277.182C160.734 276.58 160.564 276.105 160.225 275.758C159.889 275.41 159.447 275.236 158.9 275.236C158.561 275.236 158.254 275.314 157.98 275.471C157.707 275.623 157.492 275.822 157.336 276.068L156.346 275.939L157.178 271.527H161.449V272.535H158.021L157.559 274.844C158.074 274.484 158.615 274.305 159.182 274.305C159.932 274.305 160.564 274.564 161.08 275.084C161.596 275.604 161.854 276.271 161.854 277.088C161.854 277.865 161.627 278.537 161.174 279.104C160.623 279.799 159.871 280.146 158.918 280.146C158.137 280.146 157.498 279.928 157.002 279.49C156.51 279.053 156.229 278.473 156.158 277.75Z" fill="#68747F"/>
  <line x1="185.5" y1="254" x2="185.5" y2="264" stroke="#CACED3"/>
  <path d="M187.631 273.514L186.582 273.596C186.488 273.182 186.355 272.881 186.184 272.693C185.898 272.393 185.547 272.242 185.129 272.242C184.793 272.242 184.498 272.336 184.244 272.523C183.912 272.766 183.65 273.119 183.459 273.584C183.268 274.049 183.168 274.711 183.16 275.57C183.414 275.184 183.725 274.896 184.092 274.709C184.459 274.521 184.844 274.428 185.246 274.428C185.949 274.428 186.547 274.688 187.039 275.207C187.535 275.723 187.783 276.391 187.783 277.211C187.783 277.75 187.666 278.252 187.432 278.717C187.201 279.178 186.883 279.531 186.477 279.777C186.07 280.023 185.609 280.146 185.094 280.146C184.215 280.146 183.498 279.824 182.943 279.18C182.389 278.531 182.111 277.465 182.111 275.98C182.111 274.32 182.418 273.113 183.031 272.359C183.566 271.703 184.287 271.375 185.193 271.375C185.869 271.375 186.422 271.564 186.852 271.943C187.285 272.322 187.545 272.846 187.631 273.514ZM183.324 277.217C183.324 277.58 183.4 277.928 183.553 278.26C183.709 278.592 183.926 278.846 184.203 279.021C184.48 279.193 184.771 279.279 185.076 279.279C185.521 279.279 185.904 279.1 186.225 278.74C186.545 278.381 186.705 277.893 186.705 277.275C186.705 276.682 186.547 276.215 186.23 275.875C185.914 275.531 185.516 275.359 185.035 275.359C184.559 275.359 184.154 275.531 183.822 275.875C183.49 276.215 183.324 276.662 183.324 277.217Z" fill="#68747F"/>
  <line x1="211.5" y1="254" x2="211.5" y2="264" stroke="#CACED3"/>
  <path d="M208.229 272.535V271.521H213.789V272.342C213.242 272.924 212.699 273.697 212.16 274.662C211.625 275.627 211.211 276.619 210.918 277.639C210.707 278.357 210.572 279.145 210.514 280H209.43C209.441 279.324 209.574 278.508 209.828 277.551C210.082 276.594 210.445 275.672 210.918 274.785C211.395 273.895 211.9 273.145 212.436 272.535H208.229Z" fill="#68747F"/>
  <line x1="237.5" y1="254" x2="237.5" y2="264" stroke="#CACED3"/>
  <path d="M235.781 275.342C235.344 275.182 235.02 274.953 234.809 274.656C234.598 274.359 234.492 274.004 234.492 273.59C234.492 272.965 234.717 272.439 235.166 272.014C235.615 271.588 236.213 271.375 236.959 271.375C237.709 271.375 238.312 271.594 238.77 272.031C239.227 272.465 239.455 272.994 239.455 273.619C239.455 274.018 239.35 274.365 239.139 274.662C238.932 274.955 238.615 275.182 238.189 275.342C238.717 275.514 239.117 275.791 239.391 276.174C239.668 276.557 239.807 277.014 239.807 277.545C239.807 278.279 239.547 278.896 239.027 279.396C238.508 279.896 237.824 280.146 236.977 280.146C236.129 280.146 235.445 279.896 234.926 279.396C234.406 278.893 234.146 278.266 234.146 277.516C234.146 276.957 234.287 276.49 234.568 276.115C234.854 275.736 235.258 275.479 235.781 275.342ZM235.57 273.555C235.57 273.961 235.701 274.293 235.963 274.551C236.225 274.809 236.564 274.938 236.982 274.938C237.389 274.938 237.721 274.811 237.979 274.557C238.24 274.299 238.371 273.984 238.371 273.613C238.371 273.227 238.236 272.902 237.967 272.641C237.701 272.375 237.369 272.242 236.971 272.242C236.568 272.242 236.234 272.371 235.969 272.629C235.703 272.887 235.57 273.195 235.57 273.555ZM235.23 277.521C235.23 277.822 235.301 278.113 235.441 278.395C235.586 278.676 235.799 278.895 236.08 279.051C236.361 279.203 236.664 279.279 236.988 279.279C237.492 279.279 237.908 279.117 238.236 278.793C238.564 278.469 238.729 278.057 238.729 277.557C238.729 277.049 238.559 276.629 238.219 276.297C237.883 275.965 237.461 275.799 236.953 275.799C236.457 275.799 236.045 275.963 235.717 276.291C235.393 276.619 235.23 277.029 235.23 277.521Z" fill="#68747F"/>
  <line x1="263.5" y1="254" x2="263.5" y2="264" stroke="#CACED3"/>
  <path d="M260.316 278.014L261.33 277.92C261.416 278.396 261.58 278.742 261.822 278.957C262.064 279.172 262.375 279.279 262.754 279.279C263.078 279.279 263.361 279.205 263.604 279.057C263.85 278.908 264.051 278.711 264.207 278.465C264.363 278.215 264.494 277.879 264.6 277.457C264.705 277.035 264.758 276.605 264.758 276.168C264.758 276.121 264.756 276.051 264.752 275.957C264.541 276.293 264.252 276.566 263.885 276.777C263.521 276.984 263.127 277.088 262.701 277.088C261.99 277.088 261.389 276.83 260.896 276.314C260.404 275.799 260.158 275.119 260.158 274.275C260.158 273.404 260.414 272.703 260.926 272.172C261.441 271.641 262.086 271.375 262.859 271.375C263.418 271.375 263.928 271.525 264.389 271.826C264.854 272.127 265.205 272.557 265.443 273.115C265.686 273.67 265.807 274.475 265.807 275.529C265.807 276.627 265.688 277.502 265.449 278.154C265.211 278.803 264.855 279.297 264.383 279.637C263.914 279.977 263.363 280.146 262.73 280.146C262.059 280.146 261.51 279.961 261.084 279.59C260.658 279.215 260.402 278.689 260.316 278.014ZM264.635 274.223C264.635 273.617 264.473 273.137 264.148 272.781C263.828 272.426 263.441 272.248 262.988 272.248C262.52 272.248 262.111 272.439 261.764 272.822C261.416 273.205 261.242 273.701 261.242 274.311C261.242 274.857 261.406 275.303 261.734 275.646C262.066 275.986 262.475 276.156 262.959 276.156C263.447 276.156 263.848 275.986 264.16 275.646C264.477 275.303 264.635 274.828 264.635 274.223Z" fill="#68747F"/>
  <line x1="289.5" y1="254" x2="289.5" y2="264" stroke="#CACED3"/>
  <path d="M286.791 280H285.736V273.279C285.482 273.521 285.148 273.764 284.734 274.006C284.324 274.248 283.955 274.43 283.627 274.551V273.531C284.217 273.254 284.732 272.918 285.174 272.523C285.615 272.129 285.928 271.746 286.111 271.375H286.791V280ZM289.498 275.764C289.498 274.748 289.602 273.932 289.809 273.314C290.02 272.693 290.33 272.215 290.74 271.879C291.154 271.543 291.674 271.375 292.299 271.375C292.76 271.375 293.164 271.469 293.512 271.656C293.859 271.84 294.146 272.107 294.373 272.459C294.6 272.807 294.777 273.232 294.906 273.736C295.035 274.236 295.1 274.912 295.1 275.764C295.1 276.771 294.996 277.586 294.789 278.207C294.582 278.824 294.271 279.303 293.857 279.643C293.447 279.979 292.928 280.146 292.299 280.146C291.471 280.146 290.82 279.85 290.348 279.256C289.781 278.541 289.498 277.377 289.498 275.764ZM290.582 275.764C290.582 277.174 290.746 278.113 291.074 278.582C291.406 279.047 291.814 279.279 292.299 279.279C292.783 279.279 293.189 279.045 293.518 278.576C293.85 278.107 294.016 277.17 294.016 275.764C294.016 274.35 293.85 273.41 293.518 272.945C293.189 272.48 292.779 272.248 292.287 272.248C291.803 272.248 291.416 272.453 291.127 272.863C290.764 273.387 290.582 274.354 290.582 275.764Z" fill="#68747F"/>
  <line x1="315.5" y1="254" x2="315.5" y2="264" stroke="#CACED3"/>
  <path d="M313.236 280H312.182V273.279C311.928 273.521 311.594 273.764 311.18 274.006C310.77 274.248 310.4 274.43 310.072 274.551V273.531C310.662 273.254 311.178 272.918 311.619 272.523C312.061 272.129 312.373 271.746 312.557 271.375H313.236V280ZM319.025 280H317.971V273.279C317.717 273.521 317.383 273.764 316.969 274.006C316.559 274.248 316.189 274.43 315.861 274.551V273.531C316.451 273.254 316.967 272.918 317.408 272.523C317.85 272.129 318.162 271.746 318.346 271.375H319.025V280Z" fill="#68747F"/>
  <line x1="341.5" y1="254" x2="341.5" y2="264" stroke="#CACED3"/>
  <path d="M338.791 280H337.736V273.279C337.482 273.521 337.148 273.764 336.734 274.006C336.324 274.248 335.955 274.43 335.627 274.551V273.531C336.217 273.254 336.732 272.918 337.174 272.523C337.615 272.129 337.928 271.746 338.111 271.375H338.791V280ZM347.041 278.986V280H341.363C341.355 279.746 341.396 279.502 341.486 279.268C341.631 278.881 341.861 278.5 342.178 278.125C342.498 277.75 342.959 277.316 343.561 276.824C344.494 276.059 345.125 275.453 345.453 275.008C345.781 274.559 345.945 274.135 345.945 273.736C345.945 273.318 345.795 272.967 345.494 272.682C345.197 272.393 344.809 272.248 344.328 272.248C343.82 272.248 343.414 272.4 343.109 272.705C342.805 273.01 342.65 273.432 342.646 273.971L341.562 273.859C341.637 273.051 341.916 272.436 342.4 272.014C342.885 271.588 343.535 271.375 344.352 271.375C345.176 271.375 345.828 271.604 346.309 272.061C346.789 272.518 347.029 273.084 347.029 273.76C347.029 274.104 346.959 274.441 346.818 274.773C346.678 275.105 346.443 275.455 346.115 275.822C345.791 276.189 345.25 276.693 344.492 277.334C343.859 277.865 343.453 278.227 343.273 278.418C343.094 278.605 342.945 278.795 342.828 278.986H347.041Z" fill="#68747F"/>
  <line x1="367.5" y1="254" x2="367.5" y2="264" stroke="#CACED3"/>
  <path d="M364.791 280H363.736V273.279C363.482 273.521 363.148 273.764 362.734 274.006C362.324 274.248 361.955 274.43 361.627 274.551V273.531C362.217 273.254 362.732 272.918 363.174 272.523C363.615 272.129 363.928 271.746 364.111 271.375H364.791V280ZM367.504 277.732L368.559 277.592C368.68 278.189 368.885 278.621 369.174 278.887C369.467 279.148 369.822 279.279 370.24 279.279C370.736 279.279 371.154 279.107 371.494 278.764C371.838 278.42 372.01 277.994 372.01 277.486C372.01 277.002 371.852 276.604 371.535 276.291C371.219 275.975 370.816 275.816 370.328 275.816C370.129 275.816 369.881 275.855 369.584 275.934L369.701 275.008C369.771 275.016 369.828 275.02 369.871 275.02C370.32 275.02 370.725 274.902 371.084 274.668C371.443 274.434 371.623 274.072 371.623 273.584C371.623 273.197 371.492 272.877 371.23 272.623C370.969 272.369 370.631 272.242 370.217 272.242C369.807 272.242 369.465 272.371 369.191 272.629C368.918 272.887 368.742 273.273 368.664 273.789L367.609 273.602C367.738 272.895 368.031 272.348 368.488 271.961C368.945 271.57 369.514 271.375 370.193 271.375C370.662 271.375 371.094 271.477 371.488 271.68C371.883 271.879 372.184 272.152 372.391 272.5C372.602 272.848 372.707 273.217 372.707 273.607C372.707 273.979 372.607 274.316 372.408 274.621C372.209 274.926 371.914 275.168 371.523 275.348C372.031 275.465 372.426 275.709 372.707 276.08C372.988 276.447 373.129 276.908 373.129 277.463C373.129 278.213 372.855 278.85 372.309 279.373C371.762 279.893 371.07 280.152 370.234 280.152C369.48 280.152 368.854 279.928 368.354 279.479C367.857 279.029 367.574 278.447 367.504 277.732Z" fill="#68747F"/>
  <line x1="393.5" y1="254" x2="393.5" y2="264" stroke="#CACED3"/>
  <path d="M390.791 280H389.736V273.279C389.482 273.521 389.148 273.764 388.734 274.006C388.324 274.248 387.955 274.43 387.627 274.551V273.531C388.217 273.254 388.732 272.918 389.174 272.523C389.615 272.129 389.928 271.746 390.111 271.375H390.791V280ZM396.879 280V277.943H393.152V276.977L397.072 271.41H397.934V276.977H399.094V277.943H397.934V280H396.879ZM396.879 276.977V273.104L394.189 276.977H396.879Z" fill="#68747F"/>
  <line x1="419.5" y1="254" x2="419.5" y2="264" stroke="#CACED3"/>
  <path d="M416.791 280H415.736V273.279C415.482 273.521 415.148 273.764 414.734 274.006C414.324 274.248 413.955 274.43 413.627 274.551V273.531C414.217 273.254 414.732 272.918 415.174 272.523C415.615 272.129 415.928 271.746 416.111 271.375H416.791V280ZM419.498 277.75L420.605 277.656C420.688 278.195 420.877 278.602 421.174 278.875C421.475 279.145 421.836 279.279 422.258 279.279C422.766 279.279 423.195 279.088 423.547 278.705C423.898 278.322 424.074 277.814 424.074 277.182C424.074 276.58 423.904 276.105 423.564 275.758C423.229 275.41 422.787 275.236 422.24 275.236C421.9 275.236 421.594 275.314 421.32 275.471C421.047 275.623 420.832 275.822 420.676 276.068L419.686 275.939L420.518 271.527H424.789V272.535H421.361L420.898 274.844C421.414 274.484 421.955 274.305 422.521 274.305C423.271 274.305 423.904 274.564 424.42 275.084C424.936 275.604 425.193 276.271 425.193 277.088C425.193 277.865 424.967 278.537 424.514 279.104C423.963 279.799 423.211 280.146 422.258 280.146C421.477 280.146 420.838 279.928 420.342 279.49C419.85 279.053 419.568 278.473 419.498 277.75Z" fill="#68747F"/>
  <line x1="445.5" y1="254" x2="445.5" y2="264" stroke="#CACED3"/>
  <path d="M442.791 280H441.736V273.279C441.482 273.521 441.148 273.764 440.734 274.006C440.324 274.248 439.955 274.43 439.627 274.551V273.531C440.217 273.254 440.732 272.918 441.174 272.523C441.615 272.129 441.928 271.746 442.111 271.375H442.791V280ZM450.971 273.514L449.922 273.596C449.828 273.182 449.695 272.881 449.523 272.693C449.238 272.393 448.887 272.242 448.469 272.242C448.133 272.242 447.838 272.336 447.584 272.523C447.252 272.766 446.99 273.119 446.799 273.584C446.607 274.049 446.508 274.711 446.5 275.57C446.754 275.184 447.064 274.896 447.432 274.709C447.799 274.521 448.184 274.428 448.586 274.428C449.289 274.428 449.887 274.688 450.379 275.207C450.875 275.723 451.123 276.391 451.123 277.211C451.123 277.75 451.006 278.252 450.771 278.717C450.541 279.178 450.223 279.531 449.816 279.777C449.41 280.023 448.949 280.146 448.434 280.146C447.555 280.146 446.838 279.824 446.283 279.18C445.729 278.531 445.451 277.465 445.451 275.98C445.451 274.32 445.758 273.113 446.371 272.359C446.906 271.703 447.627 271.375 448.533 271.375C449.209 271.375 449.762 271.564 450.191 271.943C450.625 272.322 450.885 272.846 450.971 273.514ZM446.664 277.217C446.664 277.58 446.74 277.928 446.893 278.26C447.049 278.592 447.266 278.846 447.543 279.021C447.82 279.193 448.111 279.279 448.416 279.279C448.861 279.279 449.244 279.1 449.564 278.74C449.885 278.381 450.045 277.893 450.045 277.275C450.045 276.682 449.887 276.215 449.57 275.875C449.254 275.531 448.855 275.359 448.375 275.359C447.898 275.359 447.494 275.531 447.162 275.875C446.83 276.215 446.664 276.662 446.664 277.217Z" fill="#68747F"/>
  <line x1="471.5" y1="254" x2="471.5" y2="264" stroke="#CACED3"/>
  <path d="M468.791 280H467.736V273.279C467.482 273.521 467.148 273.764 466.734 274.006C466.324 274.248 465.955 274.43 465.627 274.551V273.531C466.217 273.254 466.732 272.918 467.174 272.523C467.615 272.129 467.928 271.746 468.111 271.375H468.791V280ZM471.568 272.535V271.521H477.129V272.342C476.582 272.924 476.039 273.697 475.5 274.662C474.965 275.627 474.551 276.619 474.258 277.639C474.047 278.357 473.912 279.145 473.854 280H472.77C472.781 279.324 472.914 278.508 473.168 277.551C473.422 276.594 473.785 275.672 474.258 274.785C474.734 273.895 475.24 273.145 475.775 272.535H471.568Z" fill="#68747F"/>
  <line x1="497.5" y1="254" x2="497.5" y2="264" stroke="#CACED3"/>
  <path d="M494.791 280H493.736V273.279C493.482 273.521 493.148 273.764 492.734 274.006C492.324 274.248 491.955 274.43 491.627 274.551V273.531C492.217 273.254 492.732 272.918 493.174 272.523C493.615 272.129 493.928 271.746 494.111 271.375H494.791V280ZM499.121 275.342C498.684 275.182 498.359 274.953 498.148 274.656C497.938 274.359 497.832 274.004 497.832 273.59C497.832 272.965 498.057 272.439 498.506 272.014C498.955 271.588 499.553 271.375 500.299 271.375C501.049 271.375 501.652 271.594 502.109 272.031C502.566 272.465 502.795 272.994 502.795 273.619C502.795 274.018 502.689 274.365 502.479 274.662C502.271 274.955 501.955 275.182 501.529 275.342C502.057 275.514 502.457 275.791 502.73 276.174C503.008 276.557 503.146 277.014 503.146 277.545C503.146 278.279 502.887 278.896 502.367 279.396C501.848 279.896 501.164 280.146 500.316 280.146C499.469 280.146 498.785 279.896 498.266 279.396C497.746 278.893 497.486 278.266 497.486 277.516C497.486 276.957 497.627 276.49 497.908 276.115C498.193 275.736 498.598 275.479 499.121 275.342ZM498.91 273.555C498.91 273.961 499.041 274.293 499.303 274.551C499.564 274.809 499.904 274.938 500.322 274.938C500.729 274.938 501.061 274.811 501.318 274.557C501.58 274.299 501.711 273.984 501.711 273.613C501.711 273.227 501.576 272.902 501.307 272.641C501.041 272.375 500.709 272.242 500.311 272.242C499.908 272.242 499.574 272.371 499.309 272.629C499.043 272.887 498.91 273.195 498.91 273.555ZM498.57 277.521C498.57 277.822 498.641 278.113 498.781 278.395C498.926 278.676 499.139 278.895 499.42 279.051C499.701 279.203 500.004 279.279 500.328 279.279C500.832 279.279 501.248 279.117 501.576 278.793C501.904 278.469 502.068 278.057 502.068 277.557C502.068 277.049 501.898 276.629 501.559 276.297C501.223 275.965 500.801 275.799 500.293 275.799C499.797 275.799 499.385 275.963 499.057 276.291C498.732 276.619 498.57 277.029 498.57 277.521Z" fill="#68747F"/>
  <line x1="523.5" y1="254" x2="523.5" y2="264" stroke="#CACED3"/>
  <path d="M520.791 280H519.736V273.279C519.482 273.521 519.148 273.764 518.734 274.006C518.324 274.248 517.955 274.43 517.627 274.551V273.531C518.217 273.254 518.732 272.918 519.174 272.523C519.615 272.129 519.928 271.746 520.111 271.375H520.791V280ZM523.656 278.014L524.67 277.92C524.756 278.396 524.92 278.742 525.162 278.957C525.404 279.172 525.715 279.279 526.094 279.279C526.418 279.279 526.701 279.205 526.943 279.057C527.189 278.908 527.391 278.711 527.547 278.465C527.703 278.215 527.834 277.879 527.939 277.457C528.045 277.035 528.098 276.605 528.098 276.168C528.098 276.121 528.096 276.051 528.092 275.957C527.881 276.293 527.592 276.566 527.225 276.777C526.861 276.984 526.467 277.088 526.041 277.088C525.33 277.088 524.729 276.83 524.236 276.314C523.744 275.799 523.498 275.119 523.498 274.275C523.498 273.404 523.754 272.703 524.266 272.172C524.781 271.641 525.426 271.375 526.199 271.375C526.758 271.375 527.268 271.525 527.729 271.826C528.193 272.127 528.545 272.557 528.783 273.115C529.025 273.67 529.146 274.475 529.146 275.529C529.146 276.627 529.027 277.502 528.789 278.154C528.551 278.803 528.195 279.297 527.723 279.637C527.254 279.977 526.703 280.146 526.07 280.146C525.398 280.146 524.85 279.961 524.424 279.59C523.998 279.215 523.742 278.689 523.656 278.014ZM527.975 274.223C527.975 273.617 527.812 273.137 527.488 272.781C527.168 272.426 526.781 272.248 526.328 272.248C525.859 272.248 525.451 272.439 525.104 272.822C524.756 273.205 524.582 273.701 524.582 274.311C524.582 274.857 524.746 275.303 525.074 275.646C525.406 275.986 525.814 276.156 526.299 276.156C526.787 276.156 527.188 275.986 527.5 275.646C527.816 275.303 527.975 274.828 527.975 274.223Z" fill="#68747F"/>
  <line x1="549.5" y1="254" x2="549.5" y2="264" stroke="#CACED3"/>
  <path d="M548.361 278.986V280H542.684C542.676 279.746 542.717 279.502 542.807 279.268C542.951 278.881 543.182 278.5 543.498 278.125C543.818 277.75 544.279 277.316 544.881 276.824C545.814 276.059 546.445 275.453 546.773 275.008C547.102 274.559 547.266 274.135 547.266 273.736C547.266 273.318 547.115 272.967 546.814 272.682C546.518 272.393 546.129 272.248 545.648 272.248C545.141 272.248 544.734 272.4 544.43 272.705C544.125 273.01 543.971 273.432 543.967 273.971L542.883 273.859C542.957 273.051 543.236 272.436 543.721 272.014C544.205 271.588 544.855 271.375 545.672 271.375C546.496 271.375 547.148 271.604 547.629 272.061C548.109 272.518 548.35 273.084 548.35 273.76C548.35 274.104 548.279 274.441 548.139 274.773C547.998 275.105 547.764 275.455 547.436 275.822C547.111 276.189 546.57 276.693 545.812 277.334C545.18 277.865 544.773 278.227 544.594 278.418C544.414 278.605 544.266 278.795 544.148 278.986H548.361ZM549.498 275.764C549.498 274.748 549.602 273.932 549.809 273.314C550.02 272.693 550.33 272.215 550.74 271.879C551.154 271.543 551.674 271.375 552.299 271.375C552.76 271.375 553.164 271.469 553.512 271.656C553.859 271.84 554.146 272.107 554.373 272.459C554.6 272.807 554.777 273.232 554.906 273.736C555.035 274.236 555.1 274.912 555.1 275.764C555.1 276.771 554.996 277.586 554.789 278.207C554.582 278.824 554.271 279.303 553.857 279.643C553.447 279.979 552.928 280.146 552.299 280.146C551.471 280.146 550.82 279.85 550.348 279.256C549.781 278.541 549.498 277.377 549.498 275.764ZM550.582 275.764C550.582 277.174 550.746 278.113 551.074 278.582C551.406 279.047 551.814 279.279 552.299 279.279C552.783 279.279 553.189 279.045 553.518 278.576C553.85 278.107 554.016 277.17 554.016 275.764C554.016 274.35 553.85 273.41 553.518 272.945C553.189 272.48 552.779 272.248 552.287 272.248C551.803 272.248 551.416 272.453 551.127 272.863C550.764 273.387 550.582 274.354 550.582 275.764Z" fill="#68747F"/>
  <line x1="575.5" y1="254" x2="575.5" y2="264" stroke="#CACED3"/>
  <path d="M574.361 278.986V280H568.684C568.676 279.746 568.717 279.502 568.807 279.268C568.951 278.881 569.182 278.5 569.498 278.125C569.818 277.75 570.279 277.316 570.881 276.824C571.814 276.059 572.445 275.453 572.773 275.008C573.102 274.559 573.266 274.135 573.266 273.736C573.266 273.318 573.115 272.967 572.814 272.682C572.518 272.393 572.129 272.248 571.648 272.248C571.141 272.248 570.734 272.4 570.43 272.705C570.125 273.01 569.971 273.432 569.967 273.971L568.883 273.859C568.957 273.051 569.236 272.436 569.721 272.014C570.205 271.588 570.855 271.375 571.672 271.375C572.496 271.375 573.148 271.604 573.629 272.061C574.109 272.518 574.35 273.084 574.35 273.76C574.35 274.104 574.279 274.441 574.139 274.773C573.998 275.105 573.764 275.455 573.436 275.822C573.111 276.189 572.57 276.693 571.812 277.334C571.18 277.865 570.773 278.227 570.594 278.418C570.414 278.605 570.266 278.795 570.148 278.986H574.361ZM579.471 280H578.416V273.279C578.162 273.521 577.828 273.764 577.414 274.006C577.004 274.248 576.635 274.43 576.307 274.551V273.531C576.896 273.254 577.412 272.918 577.854 272.523C578.295 272.129 578.607 271.746 578.791 271.375H579.471V280Z" fill="#68747F"/>
  <line x1="601.5" y1="254" x2="601.5" y2="264" stroke="#CACED3"/>
  <path d="M600.361 278.986V280H594.684C594.676 279.746 594.717 279.502 594.807 279.268C594.951 278.881 595.182 278.5 595.498 278.125C595.818 277.75 596.279 277.316 596.881 276.824C597.814 276.059 598.445 275.453 598.773 275.008C599.102 274.559 599.266 274.135 599.266 273.736C599.266 273.318 599.115 272.967 598.814 272.682C598.518 272.393 598.129 272.248 597.648 272.248C597.141 272.248 596.734 272.4 596.43 272.705C596.125 273.01 595.971 273.432 595.967 273.971L594.883 273.859C594.957 273.051 595.236 272.436 595.721 272.014C596.205 271.588 596.855 271.375 597.672 271.375C598.496 271.375 599.148 271.604 599.629 272.061C600.109 272.518 600.35 273.084 600.35 273.76C600.35 274.104 600.279 274.441 600.139 274.773C599.998 275.105 599.764 275.455 599.436 275.822C599.111 276.189 598.57 276.693 597.812 277.334C597.18 277.865 596.773 278.227 596.594 278.418C596.414 278.605 596.266 278.795 596.148 278.986H600.361ZM607.041 278.986V280H601.363C601.355 279.746 601.396 279.502 601.486 279.268C601.631 278.881 601.861 278.5 602.178 278.125C602.498 277.75 602.959 277.316 603.561 276.824C604.494 276.059 605.125 275.453 605.453 275.008C605.781 274.559 605.945 274.135 605.945 273.736C605.945 273.318 605.795 272.967 605.494 272.682C605.197 272.393 604.809 272.248 604.328 272.248C603.82 272.248 603.414 272.4 603.109 272.705C602.805 273.01 602.65 273.432 602.646 273.971L601.562 273.859C601.637 273.051 601.916 272.436 602.4 272.014C602.885 271.588 603.535 271.375 604.352 271.375C605.176 271.375 605.828 271.604 606.309 272.061C606.789 272.518 607.029 273.084 607.029 273.76C607.029 274.104 606.959 274.441 606.818 274.773C606.678 275.105 606.443 275.455 606.115 275.822C605.791 276.189 605.25 276.693 604.492 277.334C603.859 277.865 603.453 278.227 603.273 278.418C603.094 278.605 602.945 278.795 602.828 278.986H607.041Z" fill="#68747F"/>
  <line x1="627.5" y1="254" x2="627.5" y2="264" stroke="#CACED3"/>
  <path d="M626.361 278.986V280H620.684C620.676 279.746 620.717 279.502 620.807 279.268C620.951 278.881 621.182 278.5 621.498 278.125C621.818 277.75 622.279 277.316 622.881 276.824C623.814 276.059 624.445 275.453 624.773 275.008C625.102 274.559 625.266 274.135 625.266 273.736C625.266 273.318 625.115 272.967 624.814 272.682C624.518 272.393 624.129 272.248 623.648 272.248C623.141 272.248 622.734 272.4 622.43 272.705C622.125 273.01 621.971 273.432 621.967 273.971L620.883 273.859C620.957 273.051 621.236 272.436 621.721 272.014C622.205 271.588 622.855 271.375 623.672 271.375C624.496 271.375 625.148 271.604 625.629 272.061C626.109 272.518 626.35 273.084 626.35 273.76C626.35 274.104 626.279 274.441 626.139 274.773C625.998 275.105 625.764 275.455 625.436 275.822C625.111 276.189 624.57 276.693 623.812 277.334C623.18 277.865 622.773 278.227 622.594 278.418C622.414 278.605 622.266 278.795 622.148 278.986H626.361ZM627.504 277.732L628.559 277.592C628.68 278.189 628.885 278.621 629.174 278.887C629.467 279.148 629.822 279.279 630.24 279.279C630.736 279.279 631.154 279.107 631.494 278.764C631.838 278.42 632.01 277.994 632.01 277.486C632.01 277.002 631.852 276.604 631.535 276.291C631.219 275.975 630.816 275.816 630.328 275.816C630.129 275.816 629.881 275.855 629.584 275.934L629.701 275.008C629.771 275.016 629.828 275.02 629.871 275.02C630.32 275.02 630.725 274.902 631.084 274.668C631.443 274.434 631.623 274.072 631.623 273.584C631.623 273.197 631.492 272.877 631.23 272.623C630.969 272.369 630.631 272.242 630.217 272.242C629.807 272.242 629.465 272.371 629.191 272.629C628.918 272.887 628.742 273.273 628.664 273.789L627.609 273.602C627.738 272.895 628.031 272.348 628.488 271.961C628.945 271.57 629.514 271.375 630.193 271.375C630.662 271.375 631.094 271.477 631.488 271.68C631.883 271.879 632.184 272.152 632.391 272.5C632.602 272.848 632.707 273.217 632.707 273.607C632.707 273.979 632.607 274.316 632.408 274.621C632.209 274.926 631.914 275.168 631.523 275.348C632.031 275.465 632.426 275.709 632.707 276.08C632.988 276.447 633.129 276.908 633.129 277.463C633.129 278.213 632.855 278.85 632.309 279.373C631.762 279.893 631.07 280.152 630.234 280.152C629.48 280.152 628.854 279.928 628.354 279.479C627.857 279.029 627.574 278.447 627.504 277.732Z" fill="#68747F"/>
  <line x1="653.5" y1="254" x2="653.5" y2="264" stroke="#CACED3"/>
  <path d="M652.361 278.986V280H646.684C646.676 279.746 646.717 279.502 646.807 279.268C646.951 278.881 647.182 278.5 647.498 278.125C647.818 277.75 648.279 277.316 648.881 276.824C649.814 276.059 650.445 275.453 650.773 275.008C651.102 274.559 651.266 274.135 651.266 273.736C651.266 273.318 651.115 272.967 650.814 272.682C650.518 272.393 650.129 272.248 649.648 272.248C649.141 272.248 648.734 272.4 648.43 272.705C648.125 273.01 647.971 273.432 647.967 273.971L646.883 273.859C646.957 273.051 647.236 272.436 647.721 272.014C648.205 271.588 648.855 271.375 649.672 271.375C650.496 271.375 651.148 271.604 651.629 272.061C652.109 272.518 652.35 273.084 652.35 273.76C652.35 274.104 652.279 274.441 652.139 274.773C651.998 275.105 651.764 275.455 651.436 275.822C651.111 276.189 650.57 276.693 649.812 277.334C649.18 277.865 648.773 278.227 648.594 278.418C648.414 278.605 648.266 278.795 648.148 278.986H652.361ZM656.879 280V277.943H653.152V276.977L657.072 271.41H657.934V276.977H659.094V277.943H657.934V280H656.879ZM656.879 276.977V273.104L654.189 276.977H656.879Z" fill="#68747F"/>
  <line x1="679.5" y1="254" x2="679.5" y2="264" stroke="#CACED3"/>
  <path d="M678.361 278.986V280H672.684C672.676 279.746 672.717 279.502 672.807 279.268C672.951 278.881 673.182 278.5 673.498 278.125C673.818 277.75 674.279 277.316 674.881 276.824C675.814 276.059 676.445 275.453 676.773 275.008C677.102 274.559 677.266 274.135 677.266 273.736C677.266 273.318 677.115 272.967 676.814 272.682C676.518 272.393 676.129 272.248 675.648 272.248C675.141 272.248 674.734 272.4 674.43 272.705C674.125 273.01 673.971 273.432 673.967 273.971L672.883 273.859C672.957 273.051 673.236 272.436 673.721 272.014C674.205 271.588 674.855 271.375 675.672 271.375C676.496 271.375 677.148 271.604 677.629 272.061C678.109 272.518 678.35 273.084 678.35 273.76C678.35 274.104 678.279 274.441 678.139 274.773C677.998 275.105 677.764 275.455 677.436 275.822C677.111 276.189 676.57 276.693 675.812 277.334C675.18 277.865 674.773 278.227 674.594 278.418C674.414 278.605 674.266 278.795 674.148 278.986H678.361ZM679.498 277.75L680.605 277.656C680.688 278.195 680.877 278.602 681.174 278.875C681.475 279.145 681.836 279.279 682.258 279.279C682.766 279.279 683.195 279.088 683.547 278.705C683.898 278.322 684.074 277.814 684.074 277.182C684.074 276.58 683.904 276.105 683.564 275.758C683.229 275.41 682.787 275.236 682.24 275.236C681.9 275.236 681.594 275.314 681.32 275.471C681.047 275.623 680.832 275.822 680.676 276.068L679.686 275.939L680.518 271.527H684.789V272.535H681.361L680.898 274.844C681.414 274.484 681.955 274.305 682.521 274.305C683.271 274.305 683.904 274.564 684.42 275.084C684.936 275.604 685.193 276.271 685.193 277.088C685.193 277.865 684.967 278.537 684.514 279.104C683.963 279.799 683.211 280.146 682.258 280.146C681.477 280.146 680.838 279.928 680.342 279.49C679.85 279.053 679.568 278.473 679.498 277.75Z" fill="#68747F"/>
  <line x1="705.5" y1="254" x2="705.5" y2="264" stroke="#CACED3"/>
  <path d="M704.361 278.986V280H698.684C698.676 279.746 698.717 279.502 698.807 279.268C698.951 278.881 699.182 278.5 699.498 278.125C699.818 277.75 700.279 277.316 700.881 276.824C701.814 276.059 702.445 275.453 702.773 275.008C703.102 274.559 703.266 274.135 703.266 273.736C703.266 273.318 703.115 272.967 702.814 272.682C702.518 272.393 702.129 272.248 701.648 272.248C701.141 272.248 700.734 272.4 700.43 272.705C700.125 273.01 699.971 273.432 699.967 273.971L698.883 273.859C698.957 273.051 699.236 272.436 699.721 272.014C700.205 271.588 700.855 271.375 701.672 271.375C702.496 271.375 703.148 271.604 703.629 272.061C704.109 272.518 704.35 273.084 704.35 273.76C704.35 274.104 704.279 274.441 704.139 274.773C703.998 275.105 703.764 275.455 703.436 275.822C703.111 276.189 702.57 276.693 701.812 277.334C701.18 277.865 700.773 278.227 700.594 278.418C700.414 278.605 700.266 278.795 700.148 278.986H704.361ZM710.971 273.514L709.922 273.596C709.828 273.182 709.695 272.881 709.523 272.693C709.238 272.393 708.887 272.242 708.469 272.242C708.133 272.242 707.838 272.336 707.584 272.523C707.252 272.766 706.99 273.119 706.799 273.584C706.607 274.049 706.508 274.711 706.5 275.57C706.754 275.184 707.064 274.896 707.432 274.709C707.799 274.521 708.184 274.428 708.586 274.428C709.289 274.428 709.887 274.688 710.379 275.207C710.875 275.723 711.123 276.391 711.123 277.211C711.123 277.75 711.006 278.252 710.771 278.717C710.541 279.178 710.223 279.531 709.816 279.777C709.41 280.023 708.949 280.146 708.434 280.146C707.555 280.146 706.838 279.824 706.283 279.18C705.729 278.531 705.451 277.465 705.451 275.98C705.451 274.32 705.758 273.113 706.371 272.359C706.906 271.703 707.627 271.375 708.533 271.375C709.209 271.375 709.762 271.564 710.191 271.943C710.625 272.322 710.885 272.846 710.971 273.514ZM706.664 277.217C706.664 277.58 706.74 277.928 706.893 278.26C707.049 278.592 707.266 278.846 707.543 279.021C707.82 279.193 708.111 279.279 708.416 279.279C708.861 279.279 709.244 279.1 709.564 278.74C709.885 278.381 710.045 277.893 710.045 277.275C710.045 276.682 709.887 276.215 709.57 275.875C709.254 275.531 708.855 275.359 708.375 275.359C707.898 275.359 707.494 275.531 707.162 275.875C706.83 276.215 706.664 276.662 706.664 277.217Z" fill="#68747F"/>
  <line x1="731.5" y1="254" x2="731.5" y2="264" stroke="#CACED3"/>
  <path d="M730.361 278.986V280H724.684C724.676 279.746 724.717 279.502 724.807 279.268C724.951 278.881 725.182 278.5 725.498 278.125C725.818 277.75 726.279 277.316 726.881 276.824C727.814 276.059 728.445 275.453 728.773 275.008C729.102 274.559 729.266 274.135 729.266 273.736C729.266 273.318 729.115 272.967 728.814 272.682C728.518 272.393 728.129 272.248 727.648 272.248C727.141 272.248 726.734 272.4 726.43 272.705C726.125 273.01 725.971 273.432 725.967 273.971L724.883 273.859C724.957 273.051 725.236 272.436 725.721 272.014C726.205 271.588 726.855 271.375 727.672 271.375C728.496 271.375 729.148 271.604 729.629 272.061C730.109 272.518 730.35 273.084 730.35 273.76C730.35 274.104 730.279 274.441 730.139 274.773C729.998 275.105 729.764 275.455 729.436 275.822C729.111 276.189 728.57 276.693 727.812 277.334C727.18 277.865 726.773 278.227 726.594 278.418C726.414 278.605 726.266 278.795 726.148 278.986H730.361ZM731.568 272.535V271.521H737.129V272.342C736.582 272.924 736.039 273.697 735.5 274.662C734.965 275.627 734.551 276.619 734.258 277.639C734.047 278.357 733.912 279.145 733.854 280H732.77C732.781 279.324 732.914 278.508 733.168 277.551C733.422 276.594 733.785 275.672 734.258 274.785C734.734 273.895 735.24 273.145 735.775 272.535H731.568Z" fill="#68747F"/>
  <line x1="757.5" y1="254" x2="757.5" y2="264" stroke="#CACED3"/>
  <path d="M756.361 278.986V280H750.684C750.676 279.746 750.717 279.502 750.807 279.268C750.951 278.881 751.182 278.5 751.498 278.125C751.818 277.75 752.279 277.316 752.881 276.824C753.814 276.059 754.445 275.453 754.773 275.008C755.102 274.559 755.266 274.135 755.266 273.736C755.266 273.318 755.115 272.967 754.814 272.682C754.518 272.393 754.129 272.248 753.648 272.248C753.141 272.248 752.734 272.4 752.43 272.705C752.125 273.01 751.971 273.432 751.967 273.971L750.883 273.859C750.957 273.051 751.236 272.436 751.721 272.014C752.205 271.588 752.855 271.375 753.672 271.375C754.496 271.375 755.148 271.604 755.629 272.061C756.109 272.518 756.35 273.084 756.35 273.76C756.35 274.104 756.279 274.441 756.139 274.773C755.998 275.105 755.764 275.455 755.436 275.822C755.111 276.189 754.57 276.693 753.812 277.334C753.18 277.865 752.773 278.227 752.594 278.418C752.414 278.605 752.266 278.795 752.148 278.986H756.361ZM759.121 275.342C758.684 275.182 758.359 274.953 758.148 274.656C757.938 274.359 757.832 274.004 757.832 273.59C757.832 272.965 758.057 272.439 758.506 272.014C758.955 271.588 759.553 271.375 760.299 271.375C761.049 271.375 761.652 271.594 762.109 272.031C762.566 272.465 762.795 272.994 762.795 273.619C762.795 274.018 762.689 274.365 762.479 274.662C762.271 274.955 761.955 275.182 761.529 275.342C762.057 275.514 762.457 275.791 762.73 276.174C763.008 276.557 763.146 277.014 763.146 277.545C763.146 278.279 762.887 278.896 762.367 279.396C761.848 279.896 761.164 280.146 760.316 280.146C759.469 280.146 758.785 279.896 758.266 279.396C757.746 278.893 757.486 278.266 757.486 277.516C757.486 276.957 757.627 276.49 757.908 276.115C758.193 275.736 758.598 275.479 759.121 275.342ZM758.91 273.555C758.91 273.961 759.041 274.293 759.303 274.551C759.564 274.809 759.904 274.938 760.322 274.938C760.729 274.938 761.061 274.811 761.318 274.557C761.58 274.299 761.711 273.984 761.711 273.613C761.711 273.227 761.576 272.902 761.307 272.641C761.041 272.375 760.709 272.242 760.311 272.242C759.908 272.242 759.574 272.371 759.309 272.629C759.043 272.887 758.91 273.195 758.91 273.555ZM758.57 277.521C758.57 277.822 758.641 278.113 758.781 278.395C758.926 278.676 759.139 278.895 759.42 279.051C759.701 279.203 760.004 279.279 760.328 279.279C760.832 279.279 761.248 279.117 761.576 278.793C761.904 278.469 762.068 278.057 762.068 277.557C762.068 277.049 761.898 276.629 761.559 276.297C761.223 275.965 760.801 275.799 760.293 275.799C759.797 275.799 759.385 275.963 759.057 276.291C758.732 276.619 758.57 277.029 758.57 277.521Z" fill="#68747F"/>
  <line x1="783.5" y1="254" x2="783.5" y2="264" stroke="#CACED3"/>
  <path d="M782.361 278.986V280H776.684C776.676 279.746 776.717 279.502 776.807 279.268C776.951 278.881 777.182 278.5 777.498 278.125C777.818 277.75 778.279 277.316 778.881 276.824C779.814 276.059 780.445 275.453 780.773 275.008C781.102 274.559 781.266 274.135 781.266 273.736C781.266 273.318 781.115 272.967 780.814 272.682C780.518 272.393 780.129 272.248 779.648 272.248C779.141 272.248 778.734 272.4 778.43 272.705C778.125 273.01 777.971 273.432 777.967 273.971L776.883 273.859C776.957 273.051 777.236 272.436 777.721 272.014C778.205 271.588 778.855 271.375 779.672 271.375C780.496 271.375 781.148 271.604 781.629 272.061C782.109 272.518 782.35 273.084 782.35 273.76C782.35 274.104 782.279 274.441 782.139 274.773C781.998 275.105 781.764 275.455 781.436 275.822C781.111 276.189 780.57 276.693 779.812 277.334C779.18 277.865 778.773 278.227 778.594 278.418C778.414 278.605 778.266 278.795 778.148 278.986H782.361ZM783.656 278.014L784.67 277.92C784.756 278.396 784.92 278.742 785.162 278.957C785.404 279.172 785.715 279.279 786.094 279.279C786.418 279.279 786.701 279.205 786.943 279.057C787.189 278.908 787.391 278.711 787.547 278.465C787.703 278.215 787.834 277.879 787.939 277.457C788.045 277.035 788.098 276.605 788.098 276.168C788.098 276.121 788.096 276.051 788.092 275.957C787.881 276.293 787.592 276.566 787.225 276.777C786.861 276.984 786.467 277.088 786.041 277.088C785.33 277.088 784.729 276.83 784.236 276.314C783.744 275.799 783.498 275.119 783.498 274.275C783.498 273.404 783.754 272.703 784.266 272.172C784.781 271.641 785.426 271.375 786.199 271.375C786.758 271.375 787.268 271.525 787.729 271.826C788.193 272.127 788.545 272.557 788.783 273.115C789.025 273.67 789.146 274.475 789.146 275.529C789.146 276.627 789.027 277.502 788.789 278.154C788.551 278.803 788.195 279.297 787.723 279.637C787.254 279.977 786.703 280.146 786.07 280.146C785.398 280.146 784.85 279.961 784.424 279.59C783.998 279.215 783.742 278.689 783.656 278.014ZM787.975 274.223C787.975 273.617 787.812 273.137 787.488 272.781C787.168 272.426 786.781 272.248 786.328 272.248C785.859 272.248 785.451 272.439 785.104 272.822C784.756 273.205 784.582 273.701 784.582 274.311C784.582 274.857 784.746 275.303 785.074 275.646C785.406 275.986 785.814 276.156 786.299 276.156C786.787 276.156 787.188 275.986 787.5 275.646C787.816 275.303 787.975 274.828 787.975 274.223Z" fill="#68747F"/>
  <line x1="809.5" y1="254" x2="809.5" y2="264" stroke="#CACED3"/>
  <path d="M802.824 277.732L803.879 277.592C804 278.189 804.205 278.621 804.494 278.887C804.787 279.148 805.143 279.279 805.561 279.279C806.057 279.279 806.475 279.107 806.814 278.764C807.158 278.42 807.33 277.994 807.33 277.486C807.33 277.002 807.172 276.604 806.855 276.291C806.539 275.975 806.137 275.816 805.648 275.816C805.449 275.816 805.201 275.855 804.904 275.934L805.021 275.008C805.092 275.016 805.148 275.02 805.191 275.02C805.641 275.02 806.045 274.902 806.404 274.668C806.764 274.434 806.943 274.072 806.943 273.584C806.943 273.197 806.812 272.877 806.551 272.623C806.289 272.369 805.951 272.242 805.537 272.242C805.127 272.242 804.785 272.371 804.512 272.629C804.238 272.887 804.062 273.273 803.984 273.789L802.93 273.602C803.059 272.895 803.352 272.348 803.809 271.961C804.266 271.57 804.834 271.375 805.514 271.375C805.982 271.375 806.414 271.477 806.809 271.68C807.203 271.879 807.504 272.152 807.711 272.5C807.922 272.848 808.027 273.217 808.027 273.607C808.027 273.979 807.928 274.316 807.729 274.621C807.529 274.926 807.234 275.168 806.844 275.348C807.352 275.465 807.746 275.709 808.027 276.08C808.309 276.447 808.449 276.908 808.449 277.463C808.449 278.213 808.176 278.85 807.629 279.373C807.082 279.893 806.391 280.152 805.555 280.152C804.801 280.152 804.174 279.928 803.674 279.479C803.178 279.029 802.895 278.447 802.824 277.732ZM809.498 275.764C809.498 274.748 809.602 273.932 809.809 273.314C810.02 272.693 810.33 272.215 810.74 271.879C811.154 271.543 811.674 271.375 812.299 271.375C812.76 271.375 813.164 271.469 813.512 271.656C813.859 271.84 814.146 272.107 814.373 272.459C814.6 272.807 814.777 273.232 814.906 273.736C815.035 274.236 815.1 274.912 815.1 275.764C815.1 276.771 814.996 277.586 814.789 278.207C814.582 278.824 814.271 279.303 813.857 279.643C813.447 279.979 812.928 280.146 812.299 280.146C811.471 280.146 810.82 279.85 810.348 279.256C809.781 278.541 809.498 277.377 809.498 275.764ZM810.582 275.764C810.582 277.174 810.746 278.113 811.074 278.582C811.406 279.047 811.814 279.279 812.299 279.279C812.783 279.279 813.189 279.045 813.518 278.576C813.85 278.107 814.016 277.17 814.016 275.764C814.016 274.35 813.85 273.41 813.518 272.945C813.189 272.48 812.779 272.248 812.287 272.248C811.803 272.248 811.416 272.453 811.127 272.863C810.764 273.387 810.582 274.354 810.582 275.764Z" fill="#68747F"/>
  <line x1="835.5" y1="254" x2="835.5" y2="264" stroke="#CACED3"/>
  <path d="M828.824 277.732L829.879 277.592C830 278.189 830.205 278.621 830.494 278.887C830.787 279.148 831.143 279.279 831.561 279.279C832.057 279.279 832.475 279.107 832.814 278.764C833.158 278.42 833.33 277.994 833.33 277.486C833.33 277.002 833.172 276.604 832.855 276.291C832.539 275.975 832.137 275.816 831.648 275.816C831.449 275.816 831.201 275.855 830.904 275.934L831.021 275.008C831.092 275.016 831.148 275.02 831.191 275.02C831.641 275.02 832.045 274.902 832.404 274.668C832.764 274.434 832.943 274.072 832.943 273.584C832.943 273.197 832.812 272.877 832.551 272.623C832.289 272.369 831.951 272.242 831.537 272.242C831.127 272.242 830.785 272.371 830.512 272.629C830.238 272.887 830.062 273.273 829.984 273.789L828.93 273.602C829.059 272.895 829.352 272.348 829.809 271.961C830.266 271.57 830.834 271.375 831.514 271.375C831.982 271.375 832.414 271.477 832.809 271.68C833.203 271.879 833.504 272.152 833.711 272.5C833.922 272.848 834.027 273.217 834.027 273.607C834.027 273.979 833.928 274.316 833.729 274.621C833.529 274.926 833.234 275.168 832.844 275.348C833.352 275.465 833.746 275.709 834.027 276.08C834.309 276.447 834.449 276.908 834.449 277.463C834.449 278.213 834.176 278.85 833.629 279.373C833.082 279.893 832.391 280.152 831.555 280.152C830.801 280.152 830.174 279.928 829.674 279.479C829.178 279.029 828.895 278.447 828.824 277.732ZM839.471 280H838.416V273.279C838.162 273.521 837.828 273.764 837.414 274.006C837.004 274.248 836.635 274.43 836.307 274.551V273.531C836.896 273.254 837.412 272.918 837.854 272.523C838.295 272.129 838.607 271.746 838.791 271.375H839.471V280Z" fill="#68747F"/>
  <path d="M5.50977 13H3.58887V5.76074C2.88704 6.41699 2.0599 6.90234 1.10742 7.2168V5.47363C1.60872 5.30957 2.15332 4.99967 2.74121 4.54395C3.3291 4.08366 3.73242 3.54818 3.95117 2.9375H5.50977V13ZM11.6348 2.9375C12.6055 2.9375 13.3643 3.28385 13.9111 3.97656C14.5628 4.79688 14.8887 6.15723 14.8887 8.05762C14.8887 9.95345 14.5605 11.3161 13.9043 12.1455C13.362 12.8291 12.6055 13.1709 11.6348 13.1709C10.6595 13.1709 9.87337 12.7972 9.27637 12.0498C8.67936 11.2979 8.38086 9.96029 8.38086 8.03711C8.38086 6.15039 8.70898 4.79232 9.36523 3.96289C9.90755 3.2793 10.6641 2.9375 11.6348 2.9375ZM11.6348 4.53027C11.4023 4.53027 11.195 4.60547 11.0127 4.75586C10.8304 4.90169 10.6891 5.16602 10.5889 5.54883C10.4567 6.04557 10.3906 6.88184 10.3906 8.05762C10.3906 9.2334 10.4499 10.0423 10.5684 10.4844C10.6868 10.9219 10.835 11.2135 11.0127 11.3594C11.195 11.5052 11.4023 11.5781 11.6348 11.5781C11.8672 11.5781 12.0745 11.5052 12.2568 11.3594C12.4391 11.209 12.5804 10.9424 12.6807 10.5596C12.8128 10.0674 12.8789 9.2334 12.8789 8.05762C12.8789 6.88184 12.8197 6.0752 12.7012 5.6377C12.5827 5.19564 12.4323 4.90169 12.25 4.75586C12.0723 4.60547 11.8672 4.53027 11.6348 4.53027ZM19.4277 2.9375C20.3984 2.9375 21.1572 3.28385 21.7041 3.97656C22.3558 4.79688 22.6816 6.15723 22.6816 8.05762C22.6816 9.95345 22.3535 11.3161 21.6973 12.1455C21.1549 12.8291 20.3984 13.1709 19.4277 13.1709C18.4525 13.1709 17.6663 12.7972 17.0693 12.0498C16.4723 11.2979 16.1738 9.96029 16.1738 8.03711C16.1738 6.15039 16.502 4.79232 17.1582 3.96289C17.7005 3.2793 18.457 2.9375 19.4277 2.9375ZM19.4277 4.53027C19.1953 4.53027 18.988 4.60547 18.8057 4.75586C18.6234 4.90169 18.4821 5.16602 18.3818 5.54883C18.2497 6.04557 18.1836 6.88184 18.1836 8.05762C18.1836 9.2334 18.2428 10.0423 18.3613 10.4844C18.4798 10.9219 18.6279 11.2135 18.8057 11.3594C18.988 11.5052 19.1953 11.5781 19.4277 11.5781C19.6602 11.5781 19.8675 11.5052 20.0498 11.3594C20.2321 11.209 20.3734 10.9424 20.4736 10.5596C20.6058 10.0674 20.6719 9.2334 20.6719 8.05762C20.6719 6.88184 20.6126 6.0752 20.4941 5.6377C20.3757 5.19564 20.2253 4.90169 20.043 4.75586C19.8652 4.60547 19.6602 4.53027 19.4277 4.53027Z" fill="#253746"/>
  <path d="M0.594727 60.8994V59.1152H7.16406V60.5098C6.62174 61.043 6.07031 61.8086 5.50977 62.8066C4.94922 63.8047 4.52083 64.8665 4.22461 65.9922C3.93294 67.1133 3.78939 68.1159 3.79395 69H1.94141C1.97331 67.6146 2.25814 66.2018 2.7959 64.7617C3.33822 63.3216 4.06055 62.0342 4.96289 60.8994H0.594727ZM11.6348 58.9375C12.6055 58.9375 13.3643 59.2839 13.9111 59.9766C14.5628 60.7969 14.8887 62.1572 14.8887 64.0576C14.8887 65.9535 14.5605 67.3161 13.9043 68.1455C13.362 68.8291 12.6055 69.1709 11.6348 69.1709C10.6595 69.1709 9.87337 68.7972 9.27637 68.0498C8.67936 67.2979 8.38086 65.9603 8.38086 64.0371C8.38086 62.1504 8.70898 60.7923 9.36523 59.9629C9.90755 59.2793 10.6641 58.9375 11.6348 58.9375ZM11.6348 60.5303C11.4023 60.5303 11.195 60.6055 11.0127 60.7559C10.8304 60.9017 10.6891 61.166 10.5889 61.5488C10.4567 62.0456 10.3906 62.8818 10.3906 64.0576C10.3906 65.2334 10.4499 66.0423 10.5684 66.4844C10.6868 66.9219 10.835 67.2135 11.0127 67.3594C11.195 67.5052 11.4023 67.5781 11.6348 67.5781C11.8672 67.5781 12.0745 67.5052 12.2568 67.3594C12.4391 67.209 12.5804 66.9424 12.6807 66.5596C12.8128 66.0674 12.8789 65.2334 12.8789 64.0576C12.8789 62.8818 12.8197 62.0752 12.7012 61.6377C12.5827 61.1956 12.4323 60.9017 12.25 60.7559C12.0723 60.6055 11.8672 60.5303 11.6348 60.5303Z" fill="#253746"/>
  <path d="M4.36133 125V122.983H0.259766V121.302L4.60742 114.938H6.2207V121.295H7.46484V122.983H6.2207V125H4.36133ZM4.36133 121.295V117.87L2.05762 121.295H4.36133ZM11.6348 114.938C12.6055 114.938 13.3643 115.284 13.9111 115.977C14.5628 116.797 14.8887 118.157 14.8887 120.058C14.8887 121.953 14.5605 123.316 13.9043 124.146C13.362 124.829 12.6055 125.171 11.6348 125.171C10.6595 125.171 9.87337 124.797 9.27637 124.05C8.67936 123.298 8.38086 121.96 8.38086 120.037C8.38086 118.15 8.70898 116.792 9.36523 115.963C9.90755 115.279 10.6641 114.938 11.6348 114.938ZM11.6348 116.53C11.4023 116.53 11.195 116.605 11.0127 116.756C10.8304 116.902 10.6891 117.166 10.5889 117.549C10.4567 118.046 10.3906 118.882 10.3906 120.058C10.3906 121.233 10.4499 122.042 10.5684 122.484C10.6868 122.922 10.835 123.214 11.0127 123.359C11.195 123.505 11.4023 123.578 11.6348 123.578C11.8672 123.578 12.0745 123.505 12.2568 123.359C12.4391 123.209 12.5804 122.942 12.6807 122.56C12.8128 122.067 12.8789 121.233 12.8789 120.058C12.8789 118.882 12.8197 118.075 12.7012 117.638C12.5827 117.196 12.4323 116.902 12.25 116.756C12.0723 116.605 11.8672 116.53 11.6348 116.53Z" fill="#253746"/>
  <path d="M5.50977 181H3.58887V173.761C2.88704 174.417 2.0599 174.902 1.10742 175.217V173.474C1.60872 173.31 2.15332 173 2.74121 172.544C3.3291 172.084 3.73242 171.548 3.95117 170.938H5.50977V181ZM11.6348 170.938C12.6055 170.938 13.3643 171.284 13.9111 171.977C14.5628 172.797 14.8887 174.157 14.8887 176.058C14.8887 177.953 14.5605 179.316 13.9043 180.146C13.362 180.829 12.6055 181.171 11.6348 181.171C10.6595 181.171 9.87337 180.797 9.27637 180.05C8.67936 179.298 8.38086 177.96 8.38086 176.037C8.38086 174.15 8.70898 172.792 9.36523 171.963C9.90755 171.279 10.6641 170.938 11.6348 170.938ZM11.6348 172.53C11.4023 172.53 11.195 172.605 11.0127 172.756C10.8304 172.902 10.6891 173.166 10.5889 173.549C10.4567 174.046 10.3906 174.882 10.3906 176.058C10.3906 177.233 10.4499 178.042 10.5684 178.484C10.6868 178.922 10.835 179.214 11.0127 179.359C11.195 179.505 11.4023 179.578 11.6348 179.578C11.8672 179.578 12.0745 179.505 12.2568 179.359C12.4391 179.209 12.5804 178.942 12.6807 178.56C12.8128 178.067 12.8789 177.233 12.8789 176.058C12.8789 174.882 12.8197 174.075 12.7012 173.638C12.5827 173.196 12.4323 172.902 12.25 172.756C12.0723 172.605 11.8672 172.53 11.6348 172.53Z" fill="#253746"/>
  <path d="M3.8418 226.938C4.8125 226.938 5.57129 227.284 6.11816 227.977C6.76986 228.797 7.0957 230.157 7.0957 232.058C7.0957 233.953 6.76758 235.316 6.11133 236.146C5.56901 236.829 4.8125 237.171 3.8418 237.171C2.86654 237.171 2.0804 236.797 1.4834 236.05C0.886393 235.298 0.587891 233.96 0.587891 232.037C0.587891 230.15 0.916016 228.792 1.57227 227.963C2.11458 227.279 2.87109 226.938 3.8418 226.938ZM3.8418 228.53C3.60938 228.53 3.40202 228.605 3.21973 228.756C3.03743 228.902 2.89616 229.166 2.7959 229.549C2.66374 230.046 2.59766 230.882 2.59766 232.058C2.59766 233.233 2.6569 234.042 2.77539 234.484C2.89388 234.922 3.04199 235.214 3.21973 235.359C3.40202 235.505 3.60938 235.578 3.8418 235.578C4.07422 235.578 4.28158 235.505 4.46387 235.359C4.64616 235.209 4.78743 234.942 4.8877 234.56C5.01986 234.067 5.08594 233.233 5.08594 232.058C5.08594 230.882 5.02669 230.075 4.9082 229.638C4.78971 229.196 4.63932 228.902 4.45703 228.756C4.2793 228.605 4.07422 228.53 3.8418 228.53Z" fill="#253746"/>
  <path d="M55 179H64C65.1046 179 66 179.895 66 181V237H55V179Z" class="bxi-vertical-second-legend-fill" />
  <path d="M44 181C44 179.895 44.8954 179 46 179H55V237H44V181Z" class="bxi-vertical-first-legend-fill" />
  <path d="M81 76H90C91.1046 76 92 76.8954 92 78V237H81V76Z" class="bxi-vertical-second-legend-fill" />
  <path d="M70 114C70 112.895 70.8954 112 72 112H81V237H70V114Z" class="bxi-vertical-first-legend-fill" />
  <path d="M107 76H116C117.105 76 118 76.8954 118 78V237H107V76Z" class="bxi-vertical-second-legend-fill" />
  <path d="M96 57C96 55.8954 96.8954 55 98 55H107V237H96V57Z" class="bxi-vertical-first-legend-fill" />
  <path d="M133 35H142C143.105 35 144 35.8954 144 37V237H133V35Z" class="bxi-vertical-second-legend-fill" />
  <path d="M122 43C122 41.8954 122.895 41 124 41H133V237H122V43Z" class="bxi-vertical-first-legend-fill" />
  <path d="M159 76H168C169.105 76 170 76.8954 170 78V237H159V76Z" class="bxi-vertical-second-legend-fill" />
  <path d="M148 66C148 64.8954 148.895 64 150 64H159V237H148V66Z" class="bxi-vertical-first-legend-fill" />
  <path d="M185 200H194C195.105 200 196 200.895 196 202V237H185V200Z" class="bxi-vertical-second-legend-fill" />
  <path d="M174 207C174 205.895 174.895 205 176 205H185V237H174V207Z" class="bxi-vertical-first-legend-fill" />
  <path d="M211 210H220C221.105 210 222 210.895 222 212V237H211V210Z" class="bxi-vertical-second-legend-fill" />
  <path d="M200 212C200 210.895 200.895 210 202 210H211V237H200V212Z" class="bxi-vertical-first-legend-fill" />
  <path d="M237 181H246C247.105 181 248 181.895 248 183V237H237V181Z" class="bxi-vertical-second-legend-fill" />
  <path d="M226 178C226 176.895 226.895 176 228 176H237V237H226V178Z" class="bxi-vertical-first-legend-fill" />
  <path d="M263 139H272C273.105 139 274 139.895 274 141V237H263V139Z" class="bxi-vertical-second-legend-fill" />
  <path d="M252 150C252 148.895 252.895 148 254 148H263V237H252V150Z" class="bxi-vertical-first-legend-fill" />
  <path d="M289 112H298C299.105 112 300 112.895 300 114V237H289V112Z" class="bxi-vertical-second-legend-fill" />
  <path d="M278 114C278 112.895 278.895 112 280 112H289V237H278V114Z" class="bxi-vertical-first-legend-fill" />
  <path d="M315 106H324C325.105 106 326 106.895 326 108V237H315V106Z" class="bxi-vertical-second-legend-fill" />
  <path d="M304 102C304 100.895 304.895 100 306 100H315V237H304V102Z" class="bxi-vertical-first-legend-fill" />
  <path d="M341 76H350C351.105 76 352 76.8954 352 78V237H341V76Z" class="bxi-vertical-second-legend-fill" />
  <path d="M330 91C330 89.8954 330.895 89 332 89H341V237H330V91Z" class="bxi-vertical-first-legend-fill" />
  <path d="M367 91H376C377.105 91 378 91.8954 378 93V237H367V91Z" class="bxi-vertical-second-legend-fill" />
  <path d="M356 51C356 49.8954 356.895 49 358 49H367V237H356V51Z" class="bxi-vertical-first-legend-fill" />
  <path d="M393 112H402C403.105 112 404 112.895 404 114V237H393V112Z" class="bxi-vertical-second-legend-fill" />
  <path d="M382 63C382 61.8954 382.895 61 384 61H393V237H382V63Z" class="bxi-vertical-first-legend-fill" />
  <path d="M419 16H428C429.105 16 430 16.8954 430 18V237H419V16Z" class="bxi-vertical-second-legend-fill" />
  <path d="M408 33C408 31.8954 408.895 31 410 31H419V237H408V33Z" class="bxi-vertical-first-legend-fill" />
  <path d="M445 76H454C455.105 76 456 76.8954 456 78V237H445V76Z" class="bxi-vertical-second-legend-fill" />
  <path d="M434 43C434 41.8954 434.895 41 436 41H445V237H434V43Z" class="bxi-vertical-first-legend-fill" />
  <path d="M471 18H480C481.105 18 482 18.8954 482 20V237H471V18Z" class="bxi-vertical-second-legend-fill" />
  <path d="M460 13C460 11.8954 460.895 11 462 11H471V237H460V13Z" class="bxi-vertical-first-legend-fill" />
  <path d="M497 43H506C507.105 43 508 43.8954 508 45V237H497V43Z" class="bxi-vertical-second-legend-fill" />
  <path d="M486 35C486 33.8954 486.895 33 488 33H497V237H486V35Z" class="bxi-vertical-first-legend-fill" />
  <path d="M523 47H532C533.105 47 534 47.8954 534 49V237H523V47Z" class="bxi-vertical-second-legend-fill" />
  <path d="M512 59C512 57.8954 512.895 57 514 57H523V237H512V59Z" class="bxi-vertical-first-legend-fill" />
  <path d="M549 127H558C559.105 127 560 127.895 560 129V237H549V127Z" class="bxi-vertical-second-legend-fill" />
  <path d="M538 117C538 115.895 538.895 115 540 115H549V237H538V117Z" class="bxi-vertical-first-legend-fill" />
  <path d="M575 161H584C585.105 161 586 161.895 586 163V237H575V161Z" class="bxi-vertical-second-legend-fill" />
  <path d="M564 152C564 150.895 564.895 150 566 150H575V237H564V152Z" class="bxi-vertical-first-legend-fill" />
  <path d="M601 76H610C611.105 76 612 76.8954 612 78V237H601V76Z" class="bxi-vertical-second-legend-fill" />
  <path d="M590 218C590 216.895 590.895 216 592 216H601V237H590V218Z" class="bxi-vertical-first-legend-fill" />
  <path d="M627 202H636C637.105 202 638 202.895 638 204V237H627V202Z" class="bxi-vertical-second-legend-fill" />
  <path d="M616 27C616 25.8954 616.895 25 618 25H627V237H616V27Z" class="bxi-vertical-first-legend-fill" />
  <path d="M653 11H662C663.105 11 664 11.8954 664 13V237H653V11Z" class="bxi-vertical-second-legend-fill" />
  <path d="M642 108C642 106.895 642.895 106 644 106H653V237H642V108Z" class="bxi-vertical-first-legend-fill" />
  <path d="M679 49H688C689.105 49 690 49.8954 690 51V237H679V49Z" class="bxi-vertical-second-legend-fill" />
  <path d="M668 95C668 93.8954 668.895 93 670 93H679V237H668V95Z" class="bxi-vertical-first-legend-fill" />
  <path d="M705 86H714C715.105 86 716 86.8954 716 88V237H705V86Z" class="bxi-vertical-second-legend-fill" />
  <path d="M694 75C694 73.8954 694.895 73 696 73H705V237H694V75Z" class="bxi-vertical-first-legend-fill" />
  <path d="M731 27H740C741.105 27 742 27.8954 742 29V237H731V27Z" class="bxi-vertical-second-legend-fill" />
  <path d="M720 165C720 163.895 720.895 163 722 163H731V237H720V165Z" class="bxi-vertical-first-legend-fill" />
  <path d="M757 118H766C767.105 118 768 118.895 768 120V237H757V118Z" class="bxi-vertical-second-legend-fill" />
  <path d="M746 183C746 181.895 746.895 181 748 181H757V237H746V183Z" class="bxi-vertical-first-legend-fill" />
  <path d="M783 36H792C793.105 36 794 36.8954 794 38V237H783V36Z" class="bxi-vertical-second-legend-fill" />
  <path d="M772 27C772 25.8954 772.895 25 774 25H783V237H772V27Z" class="bxi-vertical-first-legend-fill" />
  <path d="M809 76H818C819.105 76 820 76.8954 820 78V237H809V76Z" class="bxi-vertical-second-legend-fill" />
  <path d="M798 63C798 61.8954 798.895 61 800 61H809V237H798V63Z" class="bxi-vertical-first-legend-fill" />
  <path d="M835 145H844C845.105 145 846 145.895 846 147V237H835V145Z" class="bxi-vertical-second-legend-fill" />
  <path d="M824 147C824 145.895 824.895 145 826 145H835V237H824V147Z" class="bxi-vertical-first-legend-fill" />
</svg>
